<svg width="686" height="589" viewBox="0 0 686 589" fill="none" xmlns="http://www.w3.org/2000/svg">
<g clip-path="url(#clip0_1_1433)">
<path d="M524.634 489.253L525.373 487.8L527.042 487.043C527.042 487.043 534.192 488.193 535.932 491.165C537.672 494.138 544.561 504.747 544.275 506.861C543.988 508.976 542.177 510.107 540.961 509.655C539.746 509.202 537.499 506.254 537.499 506.254L536.54 506.128L525.218 508.732L523.872 506.409L534.419 502.525L528.681 501.958L523.657 496.598L524.634 489.253Z" fill="#05C168"/>
<path d="M516.581 506.012C516.916 506.993 517.005 508.04 516.841 509.063C516.677 510.085 516.265 511.053 515.64 511.88C513.781 514.328 511.01 518.17 508.4 521.588C506.362 524.252 492.644 531.304 485.231 534.992C483.842 535.686 482.246 535.846 480.746 535.441C479.247 535.035 477.949 534.094 477.097 532.793C474.461 528.782 472.365 524.439 470.865 519.88C470.388 518.412 470.463 516.822 471.075 515.407C471.687 513.991 472.795 512.847 474.19 512.189L506.1 497.143C506.906 496.762 507.784 496.556 508.676 496.537C509.567 496.519 510.452 496.689 511.274 497.037C512.095 497.385 512.834 497.901 513.441 498.554C514.049 499.206 514.512 499.98 514.799 500.824L516.581 506.012Z" fill="#0075FF"/>
<path d="M516.581 506.011C516.581 506.011 516.581 505.898 516.492 505.689L516.188 504.754C515.914 503.926 515.509 502.723 514.997 501.181C514.741 500.298 514.312 499.476 513.732 498.762C513.034 497.913 512.126 497.261 511.099 496.868C509.918 496.412 508.629 496.315 507.392 496.588C506.728 496.76 506.084 497.006 505.474 497.321L503.538 498.226L484.94 506.965L473.957 512.141C472.976 512.64 472.138 513.381 471.523 514.294C470.908 515.208 470.536 516.262 470.442 517.359C470.36 518.475 470.54 519.595 470.966 520.629C471.33 521.678 471.717 522.72 472.158 523.75C473.008 525.791 473.976 527.781 475.06 529.707C475.596 530.657 476.156 531.582 476.74 532.483C477.026 532.945 477.352 533.38 477.717 533.782C478.641 534.748 479.84 535.406 481.152 535.666C482.464 535.927 483.824 535.776 485.047 535.235C486.882 534.353 488.622 533.448 490.356 532.567C493.801 530.779 497.048 529.07 500.04 527.373C501.541 526.526 502.977 525.686 504.324 524.829C505.649 524.044 506.898 523.136 508.054 522.118C508.538 521.589 508.986 521.028 509.395 520.439C509.806 519.879 510.211 519.331 510.586 518.807C511.367 517.747 512.112 516.745 512.804 515.828C513.494 514.911 514.132 514.041 514.728 513.225C515.296 512.513 515.812 511.76 516.271 510.974C516.848 509.838 517.065 508.555 516.897 507.292C516.851 506.854 516.744 506.424 516.576 506.018C516.576 506.018 516.576 506.125 516.659 506.339C516.741 506.655 516.801 506.974 516.838 507.298C516.978 508.545 516.743 509.807 516.165 510.92C515.699 511.695 515.179 512.436 514.609 513.136L512.661 515.721L510.432 518.699L509.21 520.326C508.806 520.907 508.362 521.461 507.881 521.981C506.732 522.981 505.494 523.873 504.181 524.644C502.834 525.49 501.398 526.324 499.897 527.164C496.917 528.85 493.652 530.566 490.213 532.329C488.491 533.198 486.721 534.115 484.91 534.985C483.984 535.394 482.971 535.569 481.961 535.495C480.951 535.421 479.975 535.102 479.118 534.562C478.682 534.287 478.282 533.959 477.926 533.585C477.575 533.198 477.26 532.779 476.985 532.334C476.389 531.434 475.853 530.547 475.322 529.57C474.243 527.655 473.278 525.679 472.432 523.649C472.003 522.625 471.621 521.589 471.24 520.546C470.822 519.553 470.647 518.475 470.728 517.4C470.816 516.357 471.169 515.353 471.754 514.483C472.339 513.614 473.137 512.908 474.071 512.433L485.035 507.239L503.609 498.441L505.539 497.523C506.135 497.214 506.763 496.971 507.411 496.796C508.602 496.532 509.845 496.621 510.986 497.053C511.989 497.427 512.878 498.055 513.566 498.875C514.141 499.578 514.571 500.388 514.829 501.258C515.366 502.795 515.788 503.987 516.075 504.832C516.218 505.225 516.325 505.535 516.408 505.756C516.492 505.976 516.581 506.011 516.581 506.011Z" fill="#133578"/>
<path d="M537.976 506.969C538.023 506.969 538.196 506.664 538.571 506.206C539.537 505.019 540.922 504.249 542.438 504.056C542.761 504.048 543.082 504.016 543.398 503.96C543.087 503.844 542.751 503.803 542.421 503.841C541.622 503.876 540.842 504.097 540.142 504.485C539.444 504.874 538.844 505.42 538.393 506.08C538.186 506.34 538.043 506.644 537.976 506.969Z" fill="#133578"/>
<path d="M528.383 498.153C528.852 498.589 529.353 498.987 529.885 499.344C530.826 500.053 532.137 501.012 533.501 502.173C534.672 503.161 535.754 504.246 536.737 505.421C537.482 506.325 537.876 506.933 537.929 506.91C537.877 506.743 537.798 506.586 537.697 506.445C537.458 506.042 537.195 505.654 536.91 505.284C535.968 504.056 534.895 502.935 533.71 501.941C532.531 500.949 531.297 500.021 530.016 499.166C529.502 498.782 528.956 498.443 528.383 498.153Z" fill="#133578"/>
<path d="M504.616 521.053L495.797 504.273L479.881 511.54L490.262 529.857L504.616 521.053Z" fill="white"/>
<path d="M551.479 519.729C551.189 519.255 550.859 518.808 550.49 518.394C549.852 517.596 548.953 516.506 547.939 515.314C546.927 514.123 546.002 513.057 545.323 512.294C544.978 511.861 544.591 511.461 544.167 511.103C544.454 511.578 544.785 512.025 545.156 512.437C545.795 513.236 546.694 514.325 547.701 515.517C548.708 516.709 549.638 517.775 550.323 518.531C550.671 518.964 551.058 519.365 551.479 519.729Z" fill="#133578"/>
<path d="M549.048 528.21C549.125 528.21 547.815 524.637 546.122 520.264C544.429 515.892 542.993 512.395 542.917 512.431C542.839 512.467 544.144 516.005 545.836 520.378C547.528 524.749 548.964 528.246 549.048 528.21Z" fill="#133578"/>
<path d="M541.42 523.516C541.56 521.649 541.596 519.775 541.528 517.904C541.56 516.032 541.49 514.158 541.319 512.293C541.179 514.16 541.143 516.033 541.212 517.904C541.18 519.777 541.249 521.65 541.42 523.516Z" fill="#133578"/>
<path d="M654.04 191.166C651.577 191.565 649.162 192.221 646.836 193.123C644.428 193.788 642.097 194.706 639.883 195.862C642.35 195.481 644.766 194.824 647.087 193.905C649.497 193.248 651.828 192.33 654.04 191.166Z" fill="#DCDDEB"/>
<path d="M474.262 448.822V507.527H482.124L492.678 448.165L474.262 448.822Z" fill="#DCDDEB"/>
<path d="M545.736 448.822V507.527H553.613L564.151 448.165L545.736 448.822Z" fill="#DCDDEB"/>
<path d="M635.121 448.822V507.527H627.26L616.706 448.165L635.121 448.822Z" fill="#DCDDEB"/>
<path d="M685.328 448.822V507.527H677.467L666.912 448.165L685.328 448.822Z" fill="#DCDDEB"/>
<path d="M523.389 319.704C523.389 319.704 492.319 310.749 483.753 322.693C475.187 334.638 474.263 449.635 474.263 449.635C474.263 449.635 529.715 450.636 530.733 449.635C531.751 448.633 523.389 319.704 523.389 319.704Z" fill="#68AEFF"/>
<path d="M683.747 428.658L684.66 229.739C684.702 223.62 683.975 217.05 681.652 211.389C679.329 205.727 675.903 200.584 671.575 196.257C667.246 191.929 662.101 188.505 656.437 186.183C650.773 183.86 644.705 182.686 638.583 182.727H565.356C559.274 182.728 553.251 183.944 547.646 186.305C542.039 188.666 536.961 192.123 532.711 196.473C528.461 200.824 525.124 205.981 522.896 211.64C520.668 217.298 519.596 223.345 519.739 229.424L524.437 428.658H683.747Z" fill="#0075FF"/>
<path d="M683.746 428.659C683.746 428.659 655.558 387.033 622.342 385.672C589.127 384.31 517.655 385.672 517.655 385.672C517.655 385.672 485.959 386.861 483.751 426.122V449.275H683.746V428.659Z" fill="#0075FF"/>
<path d="M618.835 386.861L536.73 386.423C528.164 386.423 518.408 385.328 510.108 387.691C485.632 394.626 482.045 425.919 483.987 447.491C484.065 448.384 482.687 448.384 482.609 447.491C481.042 429.41 482.891 404.066 498.362 392.012C507.305 385.061 517.671 384.951 528.336 384.999L618.835 385.484C619.018 385.484 619.194 385.557 619.323 385.685C619.452 385.815 619.524 385.991 619.524 386.173C619.524 386.356 619.452 386.531 619.323 386.66C619.194 386.789 619.018 386.861 618.835 386.861Z" fill="#56A4FF"/>
<path d="M542.414 188.959C542.599 188.936 542.782 188.9 542.962 188.849C543.322 188.849 543.839 188.599 544.528 188.473L547.159 188.114C548.208 188.019 549.414 187.878 550.761 187.785C556.21 187.409 564.118 187.221 573.875 187.221C578.761 187.221 584.101 187.221 589.833 187.393C595.936 187.368 602.037 187.671 608.108 188.301C611.37 188.707 614.605 189.298 617.801 190.07C621.13 190.855 624.361 192.009 627.431 193.514C633.726 197.03 638.912 202.235 642.403 208.542C643.241 210.157 643.902 211.858 644.376 213.615C644.774 215.378 645.046 217.166 645.191 218.968C645.629 222.568 645.989 226.123 646.333 229.613C647.022 236.611 647.539 243.358 647.9 249.791C648.745 262.676 649.152 274.29 649.465 284.044C649.779 293.796 649.935 301.655 650.092 307.149C650.092 309.842 650.233 311.955 650.279 313.411C650.279 314.099 650.279 314.632 650.279 314.976C650.259 315.164 650.259 315.353 650.279 315.54C650.294 315.352 650.294 315.164 650.279 314.976V313.411C650.279 311.924 650.279 309.81 650.279 307.149C650.279 301.686 650.138 293.796 649.92 284.027C649.7 274.259 649.324 262.644 648.525 249.745C648.118 243.311 647.618 236.548 646.96 229.551C646.615 226.044 646.256 222.49 645.832 218.874C645.685 217.035 645.403 215.209 644.987 213.411C644.562 211.611 643.942 209.863 643.139 208.198C641.372 204.919 639.118 201.925 636.452 199.322C633.898 196.757 630.987 194.574 627.808 192.841C624.685 191.305 621.395 190.133 618.004 189.35C614.774 188.575 611.5 187.99 608.201 187.597C602.11 186.972 595.987 186.69 589.864 186.752C584.116 186.752 578.776 186.642 573.89 186.752C564.118 186.752 556.21 187.096 550.761 187.565C549.399 187.691 548.193 187.847 547.143 187.957C546.094 188.066 545.216 188.286 544.512 188.411C543.808 188.536 543.291 188.771 542.946 188.865C542.766 188.878 542.587 188.91 542.414 188.959Z" fill="#DCDDEB"/>
<path d="M606.339 249.04C607.254 249.033 608.14 249.362 608.829 249.963C609.173 250.277 609.422 250.682 609.546 251.13C609.671 251.579 609.667 252.053 609.533 252.499C609.366 253.037 609.047 253.514 608.612 253.873C608.179 254.231 607.65 254.456 607.091 254.519C606.526 254.515 605.974 254.359 605.492 254.066C605.009 253.774 604.615 253.357 604.35 252.86C604.128 252.446 604.011 251.983 604.011 251.514C604.011 251.043 604.128 250.582 604.35 250.168C604.828 249.376 605.523 248.74 606.354 248.335C606.354 248.335 606.041 248.335 605.555 248.445C604.848 248.723 604.249 249.223 603.849 249.87C603.528 250.356 603.338 250.916 603.293 251.496C603.25 252.077 603.355 252.66 603.598 253.188C603.906 253.845 604.399 254.398 605.016 254.779C605.634 255.16 606.349 255.353 607.075 255.333C607.803 255.266 608.493 254.979 609.052 254.508C609.612 254.038 610.015 253.408 610.207 252.703C610.356 252.138 610.338 251.54 610.155 250.984C609.972 250.429 609.631 249.938 609.173 249.573C608.59 249.073 607.843 248.806 607.075 248.82C606.574 248.899 606.323 248.993 606.339 249.04Z" fill="#DCDDEB"/>
<path d="M609.032 230.569C608.063 231.001 607.21 231.655 606.543 232.478C604.786 234.363 603.606 236.71 603.143 239.242C602.679 241.775 602.951 244.388 603.927 246.771C604.226 247.772 604.763 248.685 605.493 249.432C605.618 249.432 604.976 248.368 604.397 246.583C603.619 244.27 603.441 241.797 603.879 239.396C604.317 236.995 605.357 234.745 606.902 232.854C608.155 231.398 609.111 230.678 609.032 230.569Z" fill="#DCDDEB"/>
<path d="M607.263 274.902C607.356 274.823 606.589 273.774 605.696 271.912C604.51 269.49 603.762 266.876 603.489 264.194C603.222 261.063 603.489 258.104 604.662 256.508C605.317 255.644 606.227 255.01 607.263 254.692C607.263 254.692 606.918 254.567 606.323 254.692C605.476 254.929 604.725 255.428 604.177 256.116C603.388 257.145 602.89 258.367 602.737 259.654C602.531 261.175 602.499 262.713 602.642 264.241C602.913 267.023 603.767 269.716 605.148 272.146C605.648 273.206 606.369 274.145 607.263 274.902Z" fill="#DCDDEB"/>
<path d="M595.879 251.452C597.018 251.175 598.174 250.971 599.34 250.841C600.507 250.954 601.663 251.153 602.8 251.437C602.957 251.28 601.547 250.011 599.34 250.027C597.131 250.043 595.707 251.311 595.879 251.452Z" fill="#DCDDEB"/>
<path d="M559.75 249.04C560.665 249.032 561.551 249.361 562.24 249.963C562.584 250.277 562.833 250.682 562.958 251.13C563.083 251.579 563.078 252.053 562.945 252.499C562.778 253.037 562.458 253.514 562.024 253.873C561.59 254.231 561.062 254.456 560.502 254.519C559.938 254.515 559.385 254.359 558.903 254.066C558.421 253.774 558.026 253.357 557.762 252.86C557.551 252.439 557.449 251.973 557.462 251.504C557.476 251.034 557.605 250.575 557.839 250.168C558.322 249.38 559.017 248.746 559.844 248.335C559.844 248.335 559.531 248.335 559.045 248.445C558.343 248.732 557.746 249.23 557.339 249.87C557.018 250.356 556.827 250.916 556.783 251.496C556.74 252.077 556.844 252.66 557.088 253.188C557.395 253.845 557.889 254.398 558.506 254.779C559.124 255.16 559.839 255.353 560.564 255.333C561.293 255.266 561.983 254.979 562.542 254.508C563.102 254.038 563.504 253.408 563.697 252.703C563.846 252.138 563.828 251.54 563.644 250.984C563.461 250.429 563.12 249.938 562.663 249.573C562.079 249.073 561.333 248.806 560.564 248.82C560 248.899 559.734 248.993 559.75 249.04Z" fill="#DCDDEB"/>
<path d="M562.443 230.569C561.475 231.001 560.621 231.655 559.954 232.478C558.208 234.369 557.035 236.715 556.571 239.246C556.109 241.776 556.374 244.386 557.338 246.771C557.637 247.772 558.175 248.685 558.904 249.432C559.03 249.432 558.387 248.368 557.808 246.583C557.044 244.268 556.866 241.799 557.291 239.398C557.751 237.004 558.789 234.757 560.313 232.854C561.567 231.398 562.522 230.678 562.443 230.569Z" fill="#DCDDEB"/>
<path d="M560.643 274.902C560.753 274.823 559.969 273.774 559.076 271.912C557.89 269.49 557.143 266.876 556.869 264.194C556.603 261.063 556.869 258.104 558.044 256.508C558.706 255.64 559.627 255.004 560.674 254.692C560.674 254.692 560.345 254.567 559.734 254.692C558.887 254.929 558.137 255.428 557.589 256.116C556.8 257.145 556.302 258.367 556.149 259.654C555.966 261.178 555.966 262.717 556.149 264.241C556.412 267.024 557.266 269.719 558.654 272.146C559.119 273.192 559.796 274.13 560.643 274.902Z" fill="#DCDDEB"/>
<path d="M549.322 251.452C550.461 251.174 551.617 250.969 552.782 250.84C553.949 250.953 555.106 251.152 556.243 251.435C556.415 251.278 554.991 250.01 552.782 250.026C552.133 249.961 551.477 250.057 550.874 250.306C550.27 250.554 549.737 250.948 549.322 251.452Z" fill="#DCDDEB"/>
<path d="M682.899 318.373C682.899 318.373 635.402 306.084 626.805 322.255C618.208 338.426 616.658 449.76 616.658 449.76C616.658 449.76 685.248 452.28 685.405 449.4C685.562 446.52 682.899 318.373 682.899 318.373Z" fill="#68AEFF"/>
<path d="M684.165 317.331C684.165 317.331 654.149 309.715 645.52 321.643C636.892 333.572 634.699 450.245 634.699 450.245C634.699 450.245 684.811 451.81 685.782 450.714C686.753 449.618 684.165 317.331 684.165 317.331Z" fill="#4F9EFB"/>
<path d="M667.085 375.98C667.085 375.98 667.319 375.902 667.679 375.98C667.917 376.026 668.139 376.136 668.319 376.299C668.498 376.461 668.629 376.671 668.697 376.904C668.906 377.654 668.938 378.441 668.791 379.205C668.781 379.411 668.727 379.613 668.632 379.797C668.538 379.981 668.406 380.142 668.245 380.271C668.083 380.4 667.897 380.493 667.697 380.544C667.497 380.595 667.288 380.603 667.085 380.567C666.801 380.488 666.536 380.349 666.311 380.161C666.085 379.972 665.901 379.737 665.773 379.472C665.644 379.207 665.573 378.918 665.564 378.624C665.555 378.329 665.609 378.037 665.721 377.765C666.037 376.929 666.579 376.197 667.288 375.652L667.585 375.401H667.241C666.677 375.276 666.379 375.244 666.348 375.308C666.348 375.308 666.599 375.526 667.131 375.762V375.432C666.221 375.896 665.505 376.666 665.111 377.608C664.847 378.315 664.847 379.093 665.111 379.8C665.255 380.224 665.509 380.601 665.848 380.892C666.187 381.184 666.597 381.379 667.037 381.459C667.36 381.516 667.693 381.501 668.01 381.414C668.326 381.328 668.62 381.172 668.869 380.959C669.29 380.537 669.555 379.985 669.621 379.393C669.763 378.49 669.66 377.565 669.323 376.716C669.204 376.404 668.987 376.138 668.705 375.958C668.423 375.777 668.091 375.693 667.758 375.714C667.21 375.698 667.052 375.949 667.085 375.98Z" fill="#DCDDEB"/>
<path d="M658.157 354.815C657.954 354.94 660.647 359.511 663.215 365.382C665.783 371.253 667.24 376.34 667.491 376.34C667.398 375.186 667.156 374.05 666.77 372.958C666.009 370.288 665.067 367.673 663.951 365.131C662.85 362.581 661.579 360.107 660.146 357.727C659.627 356.666 658.956 355.685 658.157 354.815Z" fill="#DCDDEB"/>
<path d="M676.887 356.789C676.198 357.596 675.628 358.498 675.196 359.466C674.256 361.188 673.051 363.614 671.86 366.354C670.67 369.094 669.73 371.645 669.12 373.507C668.714 374.511 668.445 375.564 668.322 376.639C668.557 376.717 670.247 372.209 672.612 366.746C674.976 361.282 677.106 356.914 676.887 356.789Z" fill="#DCDDEB"/>
<path d="M658.377 413.927C658.869 412.328 659.246 410.696 659.505 409.043C660.116 406.021 660.977 401.842 662.01 397.255C663.044 392.669 664.062 388.505 664.814 385.514C665.288 383.909 665.649 382.271 665.894 380.615C665.23 382.129 664.706 383.702 664.328 385.311C663.451 388.27 662.34 392.418 661.29 397.02C660.241 401.623 659.489 405.834 659.02 408.902C658.645 410.553 658.43 412.236 658.377 413.927Z" fill="#DCDDEB"/>
<path d="M676.857 401.154C676.787 400.089 676.581 399.037 676.245 398.023C675.557 395.496 674.715 393.013 673.724 390.588C672.736 388.165 671.596 385.807 670.31 383.528C669.844 382.537 669.238 381.621 668.51 380.803C668.306 380.929 670.671 385.265 672.957 390.916C675.244 396.567 676.621 401.217 676.857 401.154Z" fill="#DCDDEB"/>
<g opacity="0.5">
<path opacity="0.5" d="M230.812 502.204V73.1182H402.973V502.204H230.812Z" fill="#DCDDEB"/>
<path opacity="0.5" d="M240.269 210.174V83.8662H393.542V210.174H240.269Z" fill="#A0A3BD"/>
<path opacity="0.5" d="M240.269 347.835V221.527H393.542V347.835H240.269Z" fill="#A0A3BD"/>
<path opacity="0.5" d="M240.269 485.494V359.187H393.542V485.494H240.269Z" fill="#A0A3BD"/>
<path opacity="0.5" d="M333.248 210.174V83.8662H393.541V210.174H333.248Z" fill="#EFF0F7"/>
<path opacity="0.5" d="M333.248 347.835V221.527H393.541V347.835H333.248Z" fill="#EFF0F7"/>
<path opacity="0.5" d="M333.28 485.494V359.187H393.573V485.494H333.28Z" fill="#EFF0F7"/>
<path opacity="0.5" d="M184.068 502.204V73.1182H230.806V502.204H184.068Z" fill="#F7F9FC"/>
<path opacity="0.5" d="M46.7357 502.204V73.1182H218.897V502.204H46.7357Z" fill="#DCDDEB"/>
<path opacity="0.5" d="M56.1982 210.174V83.8662H209.472V210.174H56.1982Z" fill="#A0A3BD"/>
<path opacity="0.5" d="M56.1982 347.835V221.527H209.472V347.835H56.1982Z" fill="#A0A3BD"/>
<path opacity="0.5" d="M56.1622 485.45V359.142H209.436V485.45H56.1622Z" fill="#A0A3BD"/>
<path opacity="0.5" d="M149.177 210.174V83.8662H209.469V210.174H149.177Z" fill="#EFF0F7"/>
<path opacity="0.5" d="M149.177 347.835V221.527H209.469V347.835H149.177Z" fill="#EFF0F7"/>
<path opacity="0.5" d="M149.21 485.494V359.187H209.501V485.494H149.21Z" fill="#EFF0F7"/>
<path opacity="0.5" d="M0 502.204V73.1182H46.7389V502.204H0Z" fill="#F7F9FC"/>
<path opacity="0.5" d="M199.051 485.46H74.5898V377.353H199.051V485.46Z" fill="#DCDDEB"/>
<path opacity="0.5" d="M56.1975 377.384H74.6197V485.493H56.1975V377.384Z" fill="#EFF0F7"/>
<path opacity="0.5" d="M383.121 210.188H258.661V102.08H383.121V210.188Z" fill="#DCDDEB"/>
<path opacity="0.5" d="M240.265 102.068H258.687V210.177H240.265V102.068Z" fill="#EFF0F7"/>
</g>
<path d="M94.4504 531.957C94.4504 531.332 92.3679 470.142 82.4037 460.47C72.792 451.086 61.5783 460.118 61.1617 460.47L60.1365 459.236C60.2647 459.124 72.8401 448.875 83.5251 459.236C93.9379 469.342 95.9724 529.266 96.0524 531.812L94.4504 531.957Z" fill="#263238"/>
<path d="M95.3161 543.983C95.3161 543.247 88.5077 470.494 115.084 440.003L116.301 441.06C90.1578 471.007 96.8059 543.071 96.902 543.823L95.3161 543.983Z" fill="#263238"/>
<path d="M94.3711 536.295L92.7692 536.184C92.7692 535.351 97.9756 453.502 78.4957 435.582L79.569 434.397C99.6255 452.829 94.5954 532.885 94.3711 536.295Z" fill="#263238"/>
<path d="M96.9177 536.25H95.3157C95.3157 533.992 95.9566 480.937 111.031 472.289C112.465 471.363 114.101 470.793 115.802 470.629C117.502 470.464 119.217 470.709 120.803 471.344C129.934 475.107 134.451 491.346 134.644 492.035L133.042 492.451C133.042 492.291 128.54 476.292 120.146 472.818C118.784 472.284 117.315 472.085 115.86 472.234C114.406 472.385 113.007 472.882 111.784 473.683C97.5422 481.85 96.9177 535.705 96.9177 536.25Z" fill="#263238"/>
<path d="M91.0374 536.28L89.4355 536.183C89.4355 535.767 91.7103 494.275 80.5125 479.67C77.8053 476.131 74.8576 474.449 71.7498 474.657C64.4128 475.169 58.2774 485.867 58.2132 486.011L56.8196 485.226C57.0918 484.746 63.4516 473.633 71.6377 473.055C75.3061 472.8 78.7344 474.657 81.7941 478.693C93.3442 493.778 91.1335 534.551 91.0374 536.28Z" fill="#263238"/>
<path d="M93.4578 541.934C93.1534 537.899 86.1369 443.127 98.4876 426.424L99.7692 427.386C87.7709 443.607 94.9637 540.829 95.0597 541.806L93.4578 541.934Z" fill="#263238"/>
<path d="M124.151 480.951C124.151 480.951 116.75 483.674 118.945 490.128C121.14 496.581 144.577 507.183 144.577 507.183C144.577 507.183 154.397 498.183 145.378 483.562C136.359 468.941 124.36 476.339 124.151 480.951Z" fill="#11845B"/>
<path d="M91.9991 468.668C91.9991 468.668 99.881 468.348 100.329 475.073C100.778 481.799 83.2364 500.696 83.2364 500.696C83.2364 500.696 70.7251 496.18 73.4164 479.205C76.1076 462.23 89.9807 464.488 91.9991 468.668Z" fill="#11845B"/>
<path d="M85.2711 436.145C85.2711 436.145 90.5255 435.569 90.077 432.366C89.6284 429.162 69.62 420.932 57.8135 434.255C57.8135 434.255 65.3747 447.243 76.3161 447.42C87.2574 447.595 85.2711 436.145 85.2711 436.145Z" fill="#11845B"/>
<path d="M95.075 428.36C95.075 428.36 90.2692 430.667 88.9716 427.72C87.6739 424.774 100.185 407.19 117.342 412.267C117.342 412.267 117.806 427.288 108.611 433.213C99.4166 439.138 95.075 428.36 95.075 428.36Z" fill="#05C168"/>
<path d="M70.164 478.357C70.164 478.357 73.8005 475.427 69.8757 474.002C65.9508 472.576 46.7434 472.977 46.5351 492.002C46.5351 492.002 68.9625 495.733 71.7019 488.479C74.4413 481.225 70.164 478.357 70.164 478.357Z" fill="#05C168"/>
<path d="M115.821 435.663C115.821 435.663 112.185 432.732 116.11 431.306C120.034 429.881 139.258 430.282 139.45 449.307C139.45 449.307 117.023 453.038 114.283 445.783C111.544 438.529 115.821 435.663 115.821 435.663Z" fill="#05C168"/>
<path d="M103.982 450.99C103.982 450.99 103.662 447.434 106.546 448.827C109.43 450.221 119.361 461.03 109.06 471.247C109.06 471.247 95.0756 460.886 97.5908 455.505C100.105 450.124 103.982 450.99 103.982 450.99Z" fill="#05C168"/>
<path d="M66.9278 456.065C66.9278 456.065 69.0904 453.231 65.9185 452.862C62.7467 452.494 48.4892 456.305 51.8053 470.478C51.8053 470.478 69.1544 469.165 69.9074 463.272C70.6602 457.378 66.9278 456.065 66.9278 456.065Z" fill="#05C168"/>
<path d="M125.546 589H65.9992L59.5912 523.839H131.969L125.546 589Z" fill="#6E7191"/>
<path opacity="0.7" d="M125.546 589H65.9992L59.5912 523.839H131.969L125.546 589Z" fill="white"/>
<path d="M135.141 516.647H56.4033V531.028H135.141V516.647Z" fill="#211F54"/>
<path opacity="0.5" d="M135.141 516.647H56.4033V531.028H135.141V516.647Z" fill="white"/>
<g opacity="0.3">
<path opacity="0.3" d="M564.417 0H463.426V131.648L564.417 134.178V0Z" fill="#A0A3BD"/>
<path opacity="0.3" d="M557.762 4.68848H469.395V124.077L557.762 127.052V4.68848Z" fill="white"/>
<path opacity="0.3" d="M542.3 26.3689L483.662 24.146V107.591H542.3V26.3689Z" fill="#CEE5FF"/>
<path opacity="0.3" d="M483.662 107.591L542.3 64.7227L483.662 24.146V107.591Z" fill="#0075FF"/>
</g>
<path d="M84.8212 185.372C84.8212 199.075 106.997 210.175 134.444 210.175C161.892 210.175 184.068 199.075 184.068 185.372H84.8212Z" fill="#3F37A0"/>
<path d="M84.8212 166.793C84.8212 180.496 106.997 191.596 134.444 191.596C161.892 191.596 184.068 180.465 184.068 166.793H84.8212Z" fill="#4B3CFB"/>
<path d="M284.244 322.505C284.244 336.208 301.984 347.308 323.849 347.308C345.715 347.308 363.33 336.146 363.33 322.505H284.244Z" fill="#1D53BB"/>
<path d="M284.247 303.957C284.247 317.66 301.987 328.76 323.852 328.76C345.717 328.76 363.427 317.66 363.427 303.957H284.247Z" fill="#0075FF"/>
<path d="M441.711 424.898C441.711 426.84 459.144 470.395 459.144 470.395L501.267 487.064L494.97 498.525C494.97 498.525 450.953 496.253 444.17 492.513C437.387 488.774 430.333 479.546 430.333 479.546L417.993 434.864L441.711 424.898Z" fill="#FFBF9D"/>
<path d="M460.135 470.211C455.176 471.675 450.911 474.88 448.125 479.235C448.365 478.506 448.727 477.823 449.194 477.214C451.314 474.137 454.387 471.84 457.939 470.678C458.639 470.396 459.381 470.239 460.135 470.211Z" fill="#FF9A6C"/>
<path d="M407.431 448.501V500.274L429.896 561.546H447.706L434.793 490.327L437.659 439.234L407.431 448.501Z" fill="#FFBF9D"/>
<path d="M443.471 538.273C443.392 538.077 443.337 537.871 443.306 537.662C443.218 537.214 443.092 536.631 442.946 535.913C442.635 534.33 442.208 532.134 441.693 529.453L437.748 508.084C436.562 501.43 435.464 495.291 434.58 490.318C434.823 486.521 435.027 483.393 435.183 481.129C435.26 480.08 435.328 479.235 435.377 478.594C435.386 478.293 435.422 477.995 435.484 477.7C435.513 478.001 435.513 478.304 435.484 478.604C435.484 479.251 435.455 480.096 435.396 481.139C435.299 483.403 435.153 486.539 434.978 490.337V490.289C435.892 495.253 437.019 501.391 438.243 508.036C439.72 516.35 441.061 523.869 442.043 529.405C442.499 532.095 442.868 534.262 443.141 535.884C443.247 536.612 443.335 537.195 443.413 537.652C443.451 537.857 443.471 538.065 443.471 538.273Z" fill="#FF9A6C"/>
<path d="M278.283 566.481L258.033 560.07C258.033 560.07 232.341 575.952 228.017 572.998L261.667 529.812L269.674 537.476L275.135 538.545L295.773 551.687L278.283 566.481Z" fill="#4A4566"/>
<path d="M270.296 548.171C270.49 547.656 270.489 547.088 270.292 546.574C270.096 546.059 269.716 545.636 269.227 545.383C268.721 545.17 268.152 545.158 267.638 545.35C267.123 545.541 266.701 545.921 266.458 546.413C266.26 546.954 266.267 547.547 266.477 548.084C266.686 548.621 267.083 549.062 267.594 549.327C268.146 549.498 268.742 549.45 269.259 549.19C269.775 548.932 270.171 548.482 270.364 547.938" fill="#CFE5FF"/>
<path d="M260.792 529.084L264.173 531.687L231.544 573.008C231.544 573.008 229.212 574.281 228.027 573.008L260.792 529.084Z" fill="#211F54"/>
<path d="M257.693 560.944C257.479 560.77 258.208 559.642 258.344 558.078C258.48 556.515 258.014 555.262 258.247 555.165C258.48 555.067 259.461 556.301 259.267 558.195C259.073 560.089 257.878 561.138 257.693 560.944Z" fill="#211F54"/>
<path d="M252.28 564.053C252.047 563.936 252.397 562.741 252.066 561.333C251.736 559.924 250.949 558.982 251.094 558.778C251.24 558.574 252.571 559.371 252.95 561.128C253.329 562.887 252.494 564.159 252.28 564.053Z" fill="#211F54"/>
<path d="M244.857 562.363C244.964 562.13 246.247 562.663 246.976 564.101C247.704 565.539 247.403 566.889 247.16 566.841C246.917 566.792 246.772 565.703 246.189 564.528C245.606 563.353 244.712 562.585 244.857 562.363Z" fill="#211F54"/>
<path d="M485.875 313.301C487.123 312.754 488.511 312.609 489.846 312.884C491.18 313.159 492.396 313.84 493.327 314.835C495.332 314.864 497.269 315.563 498.831 316.82C500.392 318.077 501.489 319.819 501.946 321.77C503.318 321.941 504.622 322.465 505.731 323.289C506.839 324.114 507.715 325.213 508.273 326.476C508.831 327.741 509.052 329.128 508.914 330.502C508.775 331.877 508.283 333.192 507.485 334.32C508.714 334.995 509.699 336.04 510.301 337.307C510.904 338.572 511.093 339.996 510.842 341.375C510.59 342.754 509.911 344.02 508.901 344.992C507.891 345.964 506.599 346.594 505.211 346.792C506.106 348.107 506.481 349.708 506.263 351.282C506.044 352.858 505.25 354.296 504.032 355.319C502.814 356.342 501.259 356.877 499.669 356.82C498.08 356.762 496.568 356.118 495.426 355.01L482.231 319.974C482.072 318.621 482.338 317.252 482.991 316.057C483.644 314.862 484.651 313.898 485.875 313.301Z" fill="#211F54"/>
<path d="M495.612 356.292C499.363 350.563 500.815 343.63 499.676 336.878C498.537 330.126 494.894 324.051 489.471 319.867L488.363 319.003C475.79 310.406 461.457 316.273 453.197 329.065L423.93 370.455L421.685 376.768L429.586 402.16L443.189 400.158L453.877 389.289C453.877 389.289 466.83 396.438 475.926 384.986C480.279 379.498 488.402 367.346 495.612 356.292Z" fill="#FFBF9D"/>
<path d="M453.955 389.348C448.585 385.193 444.518 379.587 442.237 373.194C442.237 373.194 438.7 384.267 451.04 392.155L453.955 389.348Z" fill="#FF9A6C"/>
<path d="M483.981 364.402C483.649 364.845 483.157 365.137 482.611 365.218C482.065 365.297 481.509 365.158 481.066 364.83C480.842 364.684 480.65 364.495 480.501 364.274C480.353 364.052 480.25 363.804 480.199 363.541C480.148 363.28 480.15 363.01 480.206 362.749C480.261 362.489 480.368 362.242 480.522 362.023C480.684 361.803 480.889 361.618 481.124 361.477C481.359 361.337 481.619 361.243 481.89 361.204C482.161 361.164 482.437 361.178 482.702 361.245C482.967 361.312 483.217 361.432 483.437 361.595C483.659 361.741 483.851 361.931 484 362.151C484.149 362.373 484.252 362.622 484.302 362.884C484.353 363.146 484.351 363.415 484.296 363.676C484.24 363.937 484.133 364.184 483.981 364.402Z" fill="#211F54"/>
<path d="M488.421 360.702C488.052 360.761 487.518 358.866 485.739 357.497C483.961 356.127 481.969 356.011 481.95 355.641C481.95 355.476 482.436 355.243 483.32 355.272C484.503 355.331 485.637 355.76 486.565 356.496C487.495 357.205 488.176 358.192 488.509 359.313C488.723 360.158 488.606 360.693 488.421 360.702Z" fill="#211F54"/>
<path d="M468.161 353.378C467.831 353.82 467.339 354.113 466.793 354.195C466.248 354.276 465.692 354.14 465.246 353.816C465.024 353.669 464.833 353.479 464.685 353.258C464.537 353.036 464.435 352.787 464.384 352.526C464.334 352.265 464.336 351.996 464.39 351.735C464.444 351.474 464.55 351.227 464.702 351.009C465.031 350.565 465.523 350.27 466.069 350.188C466.616 350.106 467.172 350.244 467.617 350.571C467.839 350.718 468.03 350.908 468.179 351.129C468.326 351.35 468.429 351.599 468.48 351.86C468.53 352.122 468.528 352.391 468.473 352.651C468.419 352.912 468.313 353.16 468.161 353.378Z" fill="#211F54"/>
<path d="M471.649 347.307C471.28 347.365 470.746 345.471 468.958 344.101C467.17 342.732 465.188 342.615 465.168 342.246C465.168 342.072 465.654 341.848 466.548 341.878C467.729 341.94 468.862 342.364 469.793 343.092C470.725 343.803 471.406 344.793 471.737 345.918C471.912 346.754 471.795 347.287 471.649 347.307Z" fill="#211F54"/>
<path d="M467.277 364.996C468.441 365.433 469.547 366.01 470.571 366.715C471.057 367.016 471.542 367.259 471.873 367.006C472.274 366.569 472.532 366.02 472.611 365.433C473.039 364.005 473.476 362.519 473.942 360.936C475.886 354.583 477.674 349.493 477.926 349.571C478.179 349.648 476.809 354.875 474.865 361.227C474.38 362.794 473.913 364.283 473.466 365.695C473.322 366.456 472.916 367.144 472.32 367.638C472.13 367.748 471.917 367.814 471.699 367.829C471.479 367.844 471.26 367.808 471.057 367.725C470.756 367.598 470.473 367.435 470.211 367.24C469.145 366.615 468.16 365.862 467.277 364.996Z" fill="#211F54"/>
<path d="M461.097 362.178C461.398 362.392 459.911 364.315 460.504 366.967C461.097 369.619 463.312 370.988 463.118 371.27C463.05 371.406 462.37 371.27 461.486 370.638C460.346 369.782 459.544 368.55 459.222 367.162C458.919 365.834 459.142 364.442 459.843 363.276C460.388 362.382 460.961 362.071 461.097 362.178Z" fill="#211F54"/>
<path d="M475.536 342.256C474.963 342.547 473.758 340.954 471.873 339.546C469.988 338.137 468.142 337.321 468.307 336.719C468.394 336.438 469.026 336.253 469.988 336.369C471.197 336.539 472.34 337.025 473.301 337.778C474.269 338.5 475.025 339.47 475.487 340.585C475.866 341.46 475.837 342.1 475.536 342.256Z" fill="#211F54"/>
<path d="M491.793 355.525C491.181 355.739 490.18 354.446 488.625 353.417C487.071 352.387 485.565 351.824 485.545 351.183C485.545 350.882 486.041 350.59 486.886 350.561C487.976 350.581 489.036 350.925 489.932 351.547C490.828 352.169 491.52 353.043 491.919 354.058C492.182 354.854 492.055 355.408 491.793 355.525Z" fill="#211F54"/>
<path d="M498.604 350.124C498.604 350.124 501.16 340.527 498.983 336.137C496.331 330.823 490.928 334.058 487.77 329.814C484.612 325.568 482.096 320.489 475.566 320.411C468.423 320.333 468.686 324.354 464.44 329.269C447.212 349.191 438.865 352.125 445.366 341.498C446.075 340.333 443.753 337.176 446.823 332.3C450.807 325.986 456.103 318.701 460.65 315.515C464.478 312.853 468.365 311.979 474.031 312.077C482.98 312.242 490.851 318.186 495.728 322.819C500.606 327.453 506.106 341.44 498.604 350.124Z" fill="#211F54"/>
<path d="M446.386 341.751C446.699 341.316 446.92 340.821 447.038 340.298C447.154 339.774 447.164 339.233 447.066 338.705C446.968 338.178 446.765 337.676 446.467 337.23C446.169 336.783 445.785 336.402 445.336 336.107C443.024 334.65 439.672 334.02 436.368 338.575C430.538 346.676 439.846 350.892 440.021 350.668C440.196 350.444 443.918 345.161 446.386 341.751Z" fill="#FFBF9D"/>
<path d="M440.429 346.346C440.429 346.297 440.215 346.345 439.894 346.277C439.456 346.179 439.073 345.914 438.825 345.54C438.203 344.568 438.467 342.723 439.476 341.237C439.964 340.53 440.6 339.939 441.342 339.508C441.601 339.309 441.904 339.175 442.226 339.119C442.548 339.064 442.878 339.087 443.188 339.187C443.377 339.263 443.533 339.401 443.634 339.577C443.734 339.753 443.773 339.958 443.742 340.158C443.684 340.469 443.509 340.586 443.548 340.634C443.586 340.683 443.82 340.634 443.995 340.246C444.081 340.007 444.081 339.746 443.995 339.508C443.894 339.175 443.668 338.896 443.364 338.73C442.983 338.558 442.564 338.485 442.148 338.519C441.732 338.553 441.33 338.692 440.982 338.925C440.125 339.388 439.395 340.056 438.854 340.868C437.727 342.538 437.455 344.665 438.378 345.851C438.55 346.071 438.77 346.251 439.021 346.376C439.271 346.5 439.546 346.566 439.826 346.569C440.273 346.53 440.448 346.384 440.429 346.346Z" fill="#FF9A6C"/>
<path d="M458.347 326.569C458.71 328.104 459.452 329.523 460.504 330.697C461.641 331.785 463.614 332.164 464.77 331.105C465.285 330.629 465.644 329.882 466.334 329.736C467.024 329.59 467.831 330.338 468.443 330.921C469.529 331.904 470.921 332.485 472.384 332.564C473.847 332.644 475.293 332.218 476.48 331.358C476.382 332.689 477.782 333.708 479.113 333.825C480.448 333.799 481.773 333.583 483.048 333.183C483.688 332.993 484.366 332.961 485.021 333.091C485.676 333.221 486.29 333.51 486.808 333.932C487.333 334.466 487.605 335.233 488.237 335.641C489.344 336.35 490.792 335.525 491.744 334.67C492.697 333.815 493.756 332.65 495.068 332.728C496.379 332.805 497.108 333.951 497.983 334.835C498.857 335.719 500.237 336.437 501.209 335.7C501.443 335.48 501.629 335.216 501.759 334.921C501.887 334.628 501.955 334.311 501.957 333.99C502.053 332.538 501.658 331.097 500.835 329.896C500.011 328.696 498.809 327.809 497.419 327.375C498.063 325.758 498.21 323.985 497.841 322.284C497.471 320.582 496.601 319.03 495.344 317.826C494.085 316.622 492.497 315.821 490.781 315.525C489.065 315.229 487.299 315.452 485.71 316.166C485.459 314.756 484.871 313.428 483.996 312.293C483.122 311.159 481.986 310.252 480.687 309.651C479.387 309.048 477.961 308.767 476.53 308.833C475.099 308.898 473.705 309.308 472.466 310.027C471.695 309.021 470.646 308.264 469.448 307.851C468.249 307.437 466.956 307.386 465.729 307.704C464.502 308.021 463.395 308.691 462.547 309.633C461.699 310.576 461.147 311.746 460.961 312.999C458.92 312.708 456.608 313.174 455.316 314.786C454.023 316.399 454.344 319.264 456.287 320.061C455.479 320.464 454.852 321.157 454.534 322.003C454.216 322.849 454.23 323.784 454.574 324.62C454.917 325.455 455.564 326.13 456.385 326.507C457.206 326.885 458.14 326.939 458.998 326.657" fill="#211F54"/>
<path d="M455.665 319.595C455.418 319.841 455.23 320.138 455.112 320.466C454.995 320.793 454.951 321.142 454.985 321.489C454.986 322.294 455.287 323.069 455.83 323.664C456.182 324.038 456.612 324.328 457.089 324.517C457.566 324.704 458.078 324.785 458.59 324.753L458.298 324.442C458.145 325.499 458.161 326.575 458.347 327.628C458.467 328.339 458.721 329.022 459.095 329.638C459.458 330.22 459.967 330.696 460.572 331.018C461.053 331.333 461.598 331.537 462.168 331.616C462.737 331.695 463.317 331.646 463.866 331.474C464.581 331.221 465.242 330.831 465.809 330.328C466.208 329.988 466.383 329.764 466.363 329.735C466.344 329.706 466.101 329.871 465.673 330.153C465.097 330.576 464.458 330.903 463.779 331.124C463.223 331.236 462.65 331.23 462.096 331.107C461.542 330.985 461.02 330.748 460.563 330.413C460.106 330.077 459.724 329.651 459.441 329.16C459.158 328.668 458.981 328.124 458.92 327.56C458.748 326.565 458.725 325.55 458.852 324.549V324.209H458.512C458.077 324.242 457.641 324.18 457.232 324.029C456.823 323.878 456.45 323.641 456.141 323.334C455.645 322.838 455.346 322.179 455.296 321.479C455.292 320.833 455.417 320.192 455.665 319.595Z" fill="#4A4566"/>
<path d="M484.573 313.097C484.573 313.097 484.739 313.32 484.972 313.738C485.302 314.329 485.448 315.006 485.39 315.681V315.904L485.613 315.846C487.64 315.273 489.781 315.227 491.832 315.71C493.154 316.023 494.396 316.612 495.476 317.439C496.52 318.263 497.351 319.327 497.895 320.542C498.44 321.756 498.683 323.084 498.604 324.413C498.532 325.493 498.198 326.54 497.633 327.463L497.468 327.735L497.759 327.851C499.085 328.408 500.148 329.451 500.732 330.765C501.176 331.811 501.281 332.97 501.034 334.078C500.777 335.064 500.332 335.991 499.722 336.807C499.952 336.654 500.153 336.46 500.315 336.234C500.804 335.623 501.158 334.914 501.354 334.155C501.664 332.978 501.589 331.732 501.141 330.6C500.55 329.135 499.404 327.962 497.953 327.336L498.08 327.725C498.709 326.731 499.084 325.596 499.168 324.422C499.259 323 499.002 321.576 498.418 320.277C497.834 318.976 496.94 317.838 495.816 316.963C494.661 316.101 493.336 315.499 491.929 315.195C489.798 314.721 487.579 314.832 485.506 315.515L485.701 315.681C485.744 314.933 485.539 314.192 485.118 313.572C484.972 313.377 484.786 313.215 484.573 313.097Z" fill="#4A4566"/>
<path d="M364.258 488.444C364.258 488.444 419.421 522.062 422.618 531.261C424.513 536.709 430.188 566.015 406.099 567.366C380.689 568.784 263.261 567.366 263.261 567.366L275.212 535.719L301.079 536.855L344.592 537.361C344.592 537.361 295.618 517.128 284.919 500.449C271.539 479.546 292.246 448.687 292.246 448.687L364.258 488.444Z" fill="#211F54"/>
<path d="M390.096 553.727C389.907 553.716 389.721 553.68 389.542 553.62L387.978 553.222C386.637 552.834 384.703 552.25 382.341 551.425C377.609 549.813 371.147 547.394 364.054 544.625C356.961 541.857 350.577 539.216 345.971 537.282L340.53 534.96L339.062 534.3C338.886 534.235 338.719 534.148 338.567 534.038C338.749 534.084 338.928 534.142 339.101 534.213L340.608 534.777L346.107 536.952L364.239 544.15C371.332 546.938 377.765 549.405 382.458 551.104C384.8 551.97 386.715 552.61 388.036 553.047L389.571 553.533C389.752 553.581 389.927 553.646 390.096 553.727Z" fill="#4A4566"/>
<path d="M521.818 497.175C521.511 495.735 520.866 494.388 519.935 493.246C519.003 492.103 517.813 491.2 516.464 490.609C515.107 490.036 513.646 489.756 512.175 489.786C510.703 489.817 509.254 490.157 507.923 490.784C506.831 491.241 505.886 491.991 505.192 492.95C504.85 493.432 504.632 493.991 504.558 494.577C504.483 495.163 504.554 495.759 504.765 496.311L506.417 495.903C510.887 497.445 515.525 498.453 520.234 498.904C520.465 498.955 520.704 498.958 520.936 498.912C521.169 498.867 521.389 498.775 521.585 498.642C521.74 498.435 521.842 498.193 521.883 497.937C521.923 497.681 521.901 497.42 521.818 497.175Z" fill="#CFE5FF"/>
<path d="M484.768 479.235C485.224 479.39 496.583 484.694 496.583 484.694L513.549 484.626C514.393 484.617 515.214 484.902 515.871 485.432L524.617 492.446L528.368 502.576C528.368 502.576 528.795 505.587 525.511 503.072C522.227 500.556 516.765 492.698 516.765 492.698L508.768 491.202L497.03 501.022L476.751 498.555C476.751 498.555 477.14 494.592 480.522 487.871C483.903 481.149 484.768 479.235 484.768 479.235Z" fill="#CFE5FF"/>
<path d="M519.602 500.177L511.207 497.428L500.324 490.464L493.455 499.536C493.455 499.536 500.732 502.294 503.939 503.421C508.586 504.832 513.436 505.463 518.29 505.286C520.516 505.101 521.915 503.674 522.177 502.683C522.439 501.692 520.982 500.915 519.602 500.177Z" fill="#CFE5FF"/>
<path d="M511.061 490.376C511.741 490.583 512.393 490.87 513.005 491.231C514.19 491.824 515.803 492.668 517.571 493.631C518.031 493.858 518.457 494.15 518.835 494.495C519.177 494.826 519.467 495.206 519.699 495.621C520.064 496.312 520.387 497.022 520.671 497.749C521.167 498.963 521.643 499.585 521.643 499.633C521.068 499.185 520.627 498.587 520.37 497.904C519.748 496.749 519.194 494.883 517.348 494.077C515.58 493.106 513.986 492.222 512.849 491.552C512.211 491.23 511.61 490.835 511.061 490.376Z" fill="#211F54"/>
<path d="M522.09 502.683C522.031 502.683 522.158 502.353 521.866 501.916C521.399 501.331 520.794 500.872 520.108 500.575C517.819 499.527 515.434 498.703 512.985 498.118C512.363 497.953 511.741 497.807 511.158 497.671C508.962 496.408 507.107 495.203 505.727 494.436C504.967 494.063 504.23 493.644 503.521 493.184C504.347 493.403 505.141 493.73 505.882 494.155C507.32 494.845 509.215 496 511.401 497.234H511.333C511.936 497.36 512.548 497.516 513.18 497.681C515.667 498.267 518.075 499.15 520.35 500.313C521.066 500.664 521.673 501.2 522.109 501.867C522.174 501.994 522.206 502.135 522.203 502.277C522.2 502.42 522.161 502.559 522.09 502.683Z" fill="#211F54"/>
<path d="M486.225 478.808L477.607 499.807C477.471 500.134 477.211 500.393 476.886 500.527C476.559 500.662 476.193 500.662 475.867 500.527C475.706 500.461 475.559 500.363 475.436 500.241C475.313 500.118 475.215 499.972 475.148 499.811C475.081 499.651 475.047 499.479 475.047 499.305C475.047 499.131 475.081 498.958 475.148 498.798L483.767 477.797C483.902 477.471 484.161 477.213 484.487 477.078C484.813 476.943 485.18 476.943 485.506 477.079C485.667 477.145 485.813 477.242 485.937 477.364C486.06 477.487 486.158 477.633 486.224 477.794C486.291 477.954 486.326 478.126 486.326 478.3C486.326 478.474 486.291 478.646 486.225 478.808Z" fill="#CFE5FF"/>
<path d="M486.06 478.934C485.82 479.981 485.496 481.008 485.088 482.003C484.418 483.878 483.437 486.442 482.261 489.239C481.085 492.036 479.958 494.543 479.093 496.34C478.676 497.33 478.176 498.282 477.597 499.186C477.912 498.16 478.304 497.16 478.773 496.194C479.599 494.252 480.638 491.765 481.795 489.045L484.758 481.877C485.117 480.864 485.552 479.88 486.06 478.934Z" fill="#211F54"/>
<path d="M466.792 558.225L461.573 556.37C459.931 556.234 448.757 554.883 448.757 554.883L445.103 540.43L424.698 550.93C424.698 550.93 428.303 564.81 431.169 567.356C434.036 569.9 461.583 572.018 465.072 572.271C466.016 572.382 466.974 572.306 467.888 572.044C468.802 571.783 469.654 571.341 470.397 570.746C470.397 570.746 478.802 571.376 480.852 570.746C482.902 570.114 482.698 568.706 482.698 568.706C482.698 568.706 485.361 568.19 486.021 566.763C486.439 564.868 484.661 563.742 482.863 563.024C477.305 560.847 466.792 558.225 466.792 558.225Z" fill="#CFE5FF"/>
<path d="M445.996 541.177L425.368 550.668C425.21 550.741 425.04 550.783 424.866 550.791C424.692 550.798 424.519 550.772 424.355 550.712C424.192 550.652 424.042 550.562 423.914 550.444C423.786 550.326 423.683 550.185 423.609 550.026C423.463 549.705 423.45 549.34 423.572 549.008C423.693 548.678 423.941 548.409 424.26 548.258L444.889 538.798C445.047 538.724 445.217 538.682 445.391 538.675C445.565 538.667 445.738 538.694 445.901 538.753C446.065 538.813 446.215 538.904 446.343 539.022C446.471 539.139 446.574 539.281 446.647 539.439C446.787 539.756 446.797 540.116 446.675 540.441C446.554 540.765 446.31 541.03 445.996 541.177Z" fill="#CFE5FF"/>
<path d="M445.345 541.974C444.336 542.433 443.301 542.835 442.246 543.178C440.302 543.888 437.688 544.927 434.841 546.219C431.994 547.51 429.487 548.802 427.68 549.784C426.742 550.354 425.768 550.867 424.765 551.318C424.973 551.102 425.212 550.918 425.474 550.774C425.951 550.444 426.65 549.998 427.534 549.473C432.152 546.732 437.056 544.507 442.158 542.838C443.13 542.527 443.936 542.285 444.49 542.149C444.765 542.047 445.054 541.988 445.345 541.974Z" fill="#211F54"/>
<path d="M448.796 554.893C448.796 555.038 446.852 555.534 444.588 556.456C442.324 557.38 440.556 558.399 440.478 558.234C441.615 557.239 442.934 556.473 444.365 555.981C445.757 555.336 447.261 554.965 448.796 554.893Z" fill="#211F54"/>
<path d="M470.464 570.755C470.464 570.755 470.532 570.57 470.629 570.239C470.758 569.785 470.738 569.302 470.571 568.86L470.668 568.948C469.074 568.539 466.597 567.841 463.866 567.005C461.437 566.286 459.261 565.606 457.686 565.063C456.821 564.815 455.978 564.489 455.17 564.091C456.059 564.199 456.935 564.397 457.784 564.684C459.387 565.111 461.583 565.732 464.002 566.452C466.772 567.277 469.23 568.045 470.804 568.569H470.891V568.627C471.062 569.139 471.038 569.696 470.823 570.191C470.678 570.628 470.483 570.764 470.464 570.755Z" fill="#211F54"/>
<path d="M461.291 560.828C461.617 560.799 461.945 560.822 462.263 560.896C462.865 560.984 463.72 561.129 464.78 561.363C467.509 562.002 470.204 562.78 472.854 563.693C475.973 564.742 478.772 565.636 480.851 566.267C481.281 566.373 481.684 566.568 482.033 566.842C482.38 567.115 482.667 567.459 482.872 567.85C482.958 567.996 483.01 568.158 483.026 568.327C483.04 568.495 483.018 568.664 482.96 568.822C482.919 568.522 482.83 568.229 482.697 567.957C482.479 567.618 482.193 567.325 481.86 567.096C481.526 566.868 481.15 566.708 480.754 566.627C478.684 566.092 475.818 565.238 472.718 564.199C469.619 563.159 466.781 562.256 464.712 561.731C462.642 561.207 461.282 560.906 461.291 560.828Z" fill="#211F54"/>
<path d="M292.246 448.627C289.826 443.897 293.781 440.857 296.239 439.234C315.062 427.103 373.81 387.899 385.101 380.692C398.375 372.222 417.381 370.463 417.381 370.463L425.941 363.665L450.642 396.01L447.727 406.763L445.638 421.459L369.262 480.002L369.35 485.306L365.142 488.822L326.061 471.338L292.246 448.627Z" fill="#0075FF"/>
<path d="M438.835 458.934L453.187 451.862C453.187 451.862 442.576 409.706 441.789 412.106C441.002 414.504 426.951 439.225 426.951 439.225L438.835 458.934Z" fill="#0075FF"/>
<path d="M438.825 458.962L426.951 439.225C427.097 438.982 441.012 414.475 441.789 412.114C441.789 412.036 441.847 411.999 441.896 411.999C442.012 411.999 442.362 411.999 444.228 418.264C445.199 421.575 446.511 426.179 448.056 431.959C450.689 441.808 453.196 451.774 453.225 451.872L438.825 458.962ZM426.951 439.225L438.806 458.894L453.187 451.852C453.06 451.347 450.602 441.595 448.017 431.959C446.472 426.131 445.18 421.565 444.189 418.254C442.654 413.125 442.1 412.037 441.905 412.028C441.905 412.028 441.857 412.028 441.837 412.104C441.05 414.465 427.379 438.555 426.951 439.225Z" fill="#211F54"/>
<path d="M441.994 450.891L451.536 445.549C451.862 445.367 452.228 445.266 452.601 445.252C452.975 445.238 453.346 445.314 453.685 445.473C454.023 445.631 454.32 445.868 454.549 446.163C454.778 446.458 454.935 446.804 455.005 447.171L456.695 456.156C456.795 456.692 456.707 457.246 456.445 457.724C456.182 458.202 455.763 458.575 455.257 458.779L442.946 463.762C442.565 463.916 442.151 463.968 441.744 463.912C441.337 463.857 440.952 463.696 440.627 463.446C440.301 463.195 440.048 462.864 439.89 462.485C439.733 462.106 439.677 461.692 439.73 461.284L440.808 452.659C440.853 452.293 440.984 451.941 441.19 451.634C441.396 451.327 441.671 451.073 441.994 450.891Z" fill="#0075FF"/>
<path d="M441.994 450.891C441.994 450.891 441.829 450.998 441.566 451.26C441.19 451.648 440.958 452.152 440.905 452.688C440.73 454.184 440.507 456.244 440.225 458.749C440.148 459.391 440.07 460.052 439.992 460.751C439.931 461.091 439.909 461.436 439.924 461.78C439.952 462.127 440.066 462.46 440.255 462.752C440.452 463.047 440.719 463.291 441.032 463.46C441.346 463.629 441.696 463.72 442.052 463.723C442.434 463.71 442.808 463.614 443.15 463.441L444.315 462.966L454.558 458.798C454.999 458.666 455.414 458.455 455.782 458.177C456.102 457.884 456.325 457.501 456.422 457.079C456.51 456.647 456.489 456.2 456.364 455.777C456.276 455.311 456.19 454.855 456.112 454.398C455.772 452.581 455.451 450.824 455.141 449.153C455.063 448.735 454.984 448.317 454.906 447.919C454.859 447.529 454.77 447.145 454.645 446.773C454.439 446.284 454.058 445.888 453.576 445.666C453.094 445.443 452.546 445.408 452.041 445.569C451.718 445.685 451.409 445.835 451.117 446.016L449.348 446.987L443.995 449.901L442.528 450.668C442.358 450.768 442.179 450.849 441.994 450.911C442.135 450.777 442.295 450.667 442.47 450.581L443.898 449.726L449.174 446.676L450.924 445.705C451.23 445.507 451.555 445.342 451.895 445.209C452.283 445.083 452.697 445.053 453.1 445.122C453.524 445.189 453.925 445.363 454.264 445.626C454.604 445.888 454.871 446.234 455.043 446.627C455.186 447.027 455.287 447.441 455.345 447.861C455.422 448.269 455.51 448.677 455.588 449.095C455.908 450.766 456.239 452.523 456.559 454.34L456.821 455.709C456.954 456.204 456.973 456.722 456.879 457.224C456.751 457.745 456.47 458.215 456.073 458.575C455.876 458.758 455.65 458.906 455.403 459.012L454.713 459.294L444.452 463.431L443.275 463.898C442.88 464.083 442.45 464.185 442.013 464.199C441.583 464.191 441.162 464.076 440.788 463.867C440.413 463.657 440.096 463.356 439.866 462.995C439.646 462.653 439.513 462.263 439.477 461.858C439.465 461.487 439.494 461.115 439.565 460.751L439.827 458.749C440.177 456.253 440.458 454.203 440.671 452.717C440.739 452.144 441.02 451.617 441.458 451.241C441.569 451.145 441.69 451.06 441.818 450.988L441.994 450.891Z" fill="#211F54"/>
<path d="M450.369 396.418C450.29 396.595 450.185 396.759 450.058 396.904L449.086 398.254C448.173 399.468 446.919 401.11 445.394 403.111L445.238 403.315L445.083 403.101C442.634 399.595 439.301 394.961 435.453 390.027C431.285 384.666 427.321 379.964 424.396 376.613L420.898 372.698L419.926 371.62C419.808 371.499 419.707 371.362 419.625 371.212C419.764 371.308 419.89 371.419 420.004 371.542L420.976 372.514C421.84 373.408 423.074 374.728 424.571 376.399C427.573 379.702 431.596 384.374 435.764 389.746C439.651 394.689 442.926 399.361 445.306 402.917H445.005L448.833 398.147C449.271 397.632 449.62 397.177 449.902 396.865C450.043 396.702 450.2 396.552 450.369 396.418Z" fill="#211F54"/>
<path d="M401.348 425.607V471.561L438.826 474.135C439.505 471.482 439.98 468.78 440.245 466.053C440.575 456.243 444.501 436.573 445.239 433.028C449.126 414.232 445.628 395.029 424.075 395.029" fill="#0075FF"/>
<path d="M424.036 395.038H425.834C427.553 395.106 429.261 395.337 430.935 395.728C434.063 396.393 436.966 397.849 439.37 399.956C441.774 402.063 443.597 404.751 444.666 407.763C446.176 411.889 446.898 416.261 446.794 420.653C446.706 425.666 446.082 430.654 444.928 435.534C443.957 440.721 442.927 446.17 442.013 451.843C441.586 454.679 441.178 457.573 440.857 460.517C440.702 461.984 440.565 463.431 440.488 464.966C440.488 465.704 440.429 466.481 440.332 467.238C440.235 467.996 440.119 468.753 439.982 469.512C439.701 471.095 439.38 472.649 439.011 474.184L438.953 474.398H438.748L401.328 471.774H401.124V471.57C401.124 457.845 401.192 446.365 401.212 438.293C401.212 434.28 401.26 431.114 401.28 428.929C401.28 427.869 401.28 427.044 401.28 426.461V425.83C401.272 425.759 401.272 425.687 401.28 425.617C401.288 425.687 401.288 425.759 401.28 425.83C401.28 425.996 401.28 426.199 401.28 426.461C401.28 427.044 401.28 427.869 401.28 428.929C401.28 431.114 401.28 434.28 401.338 438.293C401.338 446.365 401.396 457.845 401.435 471.57L401.222 471.348L438.71 473.892L438.447 474.087C438.816 472.562 439.137 471.007 439.419 469.444C439.545 468.695 439.672 467.948 439.759 467.199C439.846 466.452 439.876 465.723 439.914 464.966C439.992 463.451 440.128 461.964 440.293 460.478C440.614 457.563 441.022 454.65 441.459 451.784C442.344 446.102 443.344 440.653 444.374 435.466C445.545 430.614 446.197 425.651 446.318 420.662C446.43 416.322 445.738 411.998 444.277 407.909C443.046 404.544 440.911 401.582 438.107 399.352C435.942 397.728 433.469 396.565 430.838 395.932C429.175 395.524 427.477 395.267 425.766 395.164L424.435 395.096C424.301 395.086 424.169 395.066 424.036 395.038Z" fill="#211F54"/>
<path d="M417.721 393.446C417.769 393.524 416.516 394.252 414.67 395.661C409.832 399.341 406.029 404.21 403.631 409.794C402.718 411.921 402.32 413.32 402.232 413.291C402.255 412.959 402.324 412.633 402.436 412.32C402.674 411.426 402.963 410.548 403.301 409.688C405.547 403.945 409.416 398.981 414.436 395.399C415.19 394.862 415.972 394.367 416.778 393.913C417.071 393.717 417.387 393.56 417.721 393.446Z" fill="#211F54"/>
<path d="M413.183 396.564C413.115 396.564 412.493 395.339 411.405 393.359C408.577 388.195 405.213 383.343 401.367 378.885C399.89 377.176 398.928 376.146 398.987 376.098C399.265 376.275 399.519 376.486 399.745 376.728C400.211 377.166 400.852 377.817 401.63 378.671C403.643 380.843 405.501 383.154 407.188 385.588C408.873 388.022 410.39 390.569 411.725 393.213C412.231 394.232 412.61 395.067 412.852 395.65C413.004 395.938 413.115 396.245 413.183 396.564Z" fill="#211F54"/>
<path d="M438.923 477.7H402.125C401.552 477.698 401 477.483 400.576 477.098C400.153 476.712 399.888 476.182 399.832 475.611L398.861 464.878C398.83 464.56 398.867 464.241 398.968 463.937C399.069 463.635 399.233 463.357 399.448 463.121C399.663 462.885 399.925 462.696 400.217 462.568C400.508 462.439 400.824 462.373 401.144 462.373H440.254C440.578 462.376 440.899 462.449 441.193 462.586C441.489 462.723 441.751 462.922 441.963 463.168C442.176 463.414 442.333 463.702 442.425 464.014C442.517 464.326 442.542 464.654 442.498 464.975L441.177 475.66C441.113 476.216 440.848 476.729 440.434 477.105C440.02 477.481 439.482 477.691 438.923 477.7Z" fill="#0075FF"/>
<path d="M438.922 477.7C439.297 477.668 439.661 477.558 439.991 477.379C440.384 477.154 440.699 476.816 440.895 476.408C441.11 475.829 441.225 475.219 441.235 474.602C441.4 473.184 441.595 471.464 441.828 469.473C441.944 468.501 442.071 467.413 442.207 466.277C442.255 465.723 442.382 465.102 442.372 464.558C442.354 464.272 442.28 463.992 442.153 463.735C442.026 463.479 441.85 463.249 441.633 463.062C441.402 462.868 441.134 462.724 440.844 462.637C440.556 462.55 440.253 462.523 439.952 462.556H433.607H424.104H402.32C401.853 462.556 401.348 462.556 400.911 462.556C400.485 462.606 400.086 462.788 399.769 463.077C399.453 463.367 399.237 463.749 399.152 464.169C399.123 464.379 399.123 464.591 399.152 464.801L399.22 465.499C399.382 467.371 399.547 469.217 399.715 471.037C399.793 471.939 399.881 472.843 399.958 473.727L400.075 475.058C400.077 475.471 400.166 475.877 400.337 476.253C401.095 477.864 403.175 477.224 404.778 477.379L422.569 477.438L434.569 477.516L437.824 477.564H438.67C438.767 477.555 438.864 477.555 438.961 477.564H438.67H437.824H434.569L422.569 477.652H404.778H402.242C401.762 477.661 401.289 477.538 400.875 477.294C400.462 477.051 400.124 476.696 399.9 476.272C399.702 475.842 399.596 475.375 399.589 474.902L399.473 473.571C399.385 472.678 399.307 471.784 399.22 470.881C399.052 469.062 398.883 467.216 398.715 465.345L398.647 464.635C398.629 464.375 398.646 464.114 398.695 463.858C398.805 463.34 399.073 462.867 399.463 462.508C399.856 462.147 400.352 461.917 400.881 461.848C401.426 461.848 401.853 461.848 402.358 461.848H424.143H433.646H439.991C440.34 461.817 440.692 461.856 441.026 461.962C441.359 462.069 441.668 462.241 441.935 462.469C442.185 462.687 442.388 462.954 442.532 463.252C442.675 463.552 442.757 463.876 442.77 464.208C442.77 464.869 442.634 465.412 442.586 465.985C442.43 467.112 442.294 468.181 442.168 469.181C441.905 471.124 441.682 472.882 441.488 474.3C441.461 474.937 441.326 475.564 441.089 476.156C440.91 476.491 440.649 476.778 440.332 476.99C440.016 477.202 439.651 477.332 439.272 477.37C439.177 477.5 439.058 477.612 438.922 477.7Z" fill="#211F54"/>
<path d="M352.18 464.461C352.467 464.568 352.735 464.719 352.977 464.908C353.473 465.219 354.172 465.695 355.027 466.307C357.232 467.923 359.335 469.675 361.324 471.552C363.318 473.426 365.19 475.424 366.93 477.535C367.591 478.342 368.106 479.011 368.446 479.478C368.639 479.718 368.805 479.979 368.942 480.256C368.131 479.469 367.369 478.635 366.658 477.759C365.269 476.195 363.296 474.097 360.984 471.931C358.671 469.764 356.446 467.899 354.814 466.607C353.895 465.943 353.017 465.225 352.18 464.461Z" fill="#211F54"/>
<g opacity="0.3">
<path opacity="0.3" d="M398.258 457.739C398.511 457.545 398.452 424.083 399.842 420.071C400.405 418.176 401.216 416.364 402.252 414.68L401.348 455.379L398.258 457.739Z" fill="#133578"/>
</g>
<g opacity="0.3">
<path opacity="0.3" d="M421.559 373.232L446.045 405.976L449.212 397.895L445.219 403.004C445.219 403.004 424.134 374.728 421.559 373.232Z" fill="#133578"/>
</g>
<g opacity="0.3">
<path opacity="0.3" d="M401.348 462.373C401.348 462.373 422.861 457.633 440.079 462.373H401.348Z" fill="#133578"/>
</g>
<g opacity="0.3">
<path opacity="0.3" d="M359.428 470.609C355.775 466.316 350.401 463.908 345.086 462.033C339.771 460.158 334.242 458.662 329.481 455.641C328.78 455.265 328.184 454.717 327.752 454.048C327.542 453.712 327.445 453.317 327.476 452.922C327.508 452.526 327.665 452.151 327.926 451.853C328.607 451.202 329.705 451.406 330.608 451.678C341.502 454.974 351.259 461.241 358.787 469.774" fill="#133578"/>
</g>
<path d="M340.889 455.758C340.101 455.628 339.333 455.397 338.605 455.068C336.816 454.365 335.09 453.511 333.446 452.513C331.802 451.521 330.252 450.383 328.811 449.113C328.182 448.623 327.622 448.047 327.149 447.404C327.816 447.831 328.449 448.309 329.044 448.832C330.533 450.007 332.091 451.093 333.708 452.086C335.337 453.065 337.021 453.95 338.751 454.737C339.492 455.015 340.207 455.356 340.889 455.758Z" fill="#211F54"/>
<path d="M347.37 465.675C347.438 465.811 344.28 467.317 340.782 469.803C337.284 472.29 334.806 474.747 334.699 474.66C335.127 474.019 335.64 473.441 336.225 472.941C337.557 471.661 338.982 470.482 340.49 469.415C342.001 468.346 343.59 467.392 345.242 466.559C345.908 466.171 346.624 465.874 347.37 465.675Z" fill="#211F54"/>
<path d="M395.381 434.805C395.449 434.922 386.441 440.828 375.258 447.997C364.074 455.165 354.94 460.877 354.852 460.76C354.765 460.644 363.792 454.738 374.976 447.569C386.16 440.401 395.303 434.689 395.381 434.805Z" fill="#211F54"/>
<path d="M448.796 401.071C448.796 401.071 448.883 400.955 449.087 400.761C449.291 400.567 449.621 400.304 450.059 399.993C451.289 399.102 452.64 398.392 454.072 397.885C454.519 397.73 455.043 397.575 455.51 397.449L456.297 397.264C456.614 397.171 456.952 397.171 457.269 397.264C457.436 397.339 457.578 397.46 457.681 397.613C457.782 397.766 457.838 397.944 457.842 398.128C457.85 398.306 457.822 398.484 457.76 398.65C457.699 398.817 457.604 398.97 457.482 399.1C457.006 399.531 456.461 399.878 455.869 400.129C454.668 400.71 453.403 401.147 452.099 401.431C451.405 401.589 450.7 401.696 449.991 401.751C449.774 401.776 449.555 401.746 449.353 401.664C449.152 401.583 448.973 401.453 448.834 401.285C448.618 400.984 448.439 400.658 448.3 400.314C447.731 399.009 447.254 397.664 446.872 396.292C446.687 395.632 446.532 394.971 446.405 394.35C446.221 393.697 446.158 393.015 446.221 392.339C446.291 391.974 446.5 391.65 446.804 391.436C446.959 391.325 447.141 391.259 447.331 391.244C447.521 391.228 447.711 391.265 447.882 391.349C448.432 391.67 448.846 392.182 449.048 392.786C449.473 393.752 449.764 394.772 449.913 395.817C450.138 397.321 450.068 398.855 449.709 400.333C449.609 400.733 449.482 401.125 449.33 401.508C449.283 401.644 449.221 401.775 449.145 401.897C449.097 401.897 449.311 401.324 449.515 400.294C449.797 398.833 449.814 397.332 449.563 395.865C449.393 394.859 449.093 393.88 448.669 392.951C448.494 392.452 448.15 392.029 447.698 391.756C447.27 391.524 446.726 391.902 446.677 392.436C446.637 393.049 446.703 393.663 446.872 394.253C447.008 394.884 447.173 395.535 447.348 396.196C447.727 397.545 448.201 398.866 448.766 400.149C448.881 400.465 449.035 400.765 449.223 401.042C449.313 401.152 449.428 401.235 449.559 401.287C449.689 401.337 449.832 401.354 449.971 401.333C450.651 401.274 451.326 401.17 451.992 401.022C453.262 400.759 454.495 400.341 455.665 399.779C456.206 399.563 456.707 399.26 457.152 398.886C457.502 398.536 457.492 397.914 457.152 397.75C456.662 397.673 456.161 397.72 455.694 397.885C455.214 397.993 454.741 398.125 454.276 398.284C452.857 398.757 451.506 399.41 450.253 400.226C449.301 400.732 448.815 401.1 448.796 401.071Z" fill="#4A4566"/>
<path d="M450.856 430.978C451.213 429.536 451.243 428.033 450.943 426.578C450.7 425.228 450.156 423.664 449.641 421.906C448.974 419.98 448.827 417.913 449.213 415.913C449.437 414.864 449.738 413.873 449.913 412.911C450.082 411.993 450.082 411.052 449.913 410.133C449.583 408.375 448.883 406.84 448.611 405.461C448.332 404.372 448.332 403.229 448.611 402.139C448.694 401.851 448.811 401.573 448.961 401.313C449.077 401.139 449.145 401.052 449.155 401.061C449.165 401.071 448.961 401.449 448.796 402.188C448.604 403.251 448.657 404.344 448.951 405.384C449.252 406.714 449.991 408.21 450.36 410.056C450.541 411.019 450.541 412.006 450.36 412.97C450.185 413.941 449.884 414.971 449.67 415.99C449.301 417.911 449.431 419.895 450.049 421.75C450.545 423.305 450.947 424.888 451.254 426.49C451.459 427.586 451.459 428.708 451.254 429.803C451.204 430.219 451.069 430.618 450.856 430.978Z" fill="#4A4566"/>
<path d="M454.402 414.631C453.767 414.186 453.214 413.634 452.77 412.999C450.429 410.037 449.223 406.338 449.369 402.567C449.352 401.79 449.474 401.018 449.728 400.285C449.516 402.866 449.82 405.464 450.622 407.927C451.425 410.391 452.709 412.669 454.402 414.631Z" fill="#4A4566"/>
<path d="M415.155 364.578C415.08 364.646 414.994 364.705 414.903 364.752L414.155 365.219L411.24 366.948L400.551 373.3C391.495 378.682 379.048 386.19 365.434 394.728C351.821 403.266 339.626 411.241 330.841 417.001L320.454 423.898L317.627 425.762L316.879 426.238C316.71 426.348 316.623 426.397 316.616 426.384L316.849 426.19L317.568 425.675L320.347 423.733C322.757 422.052 326.275 419.643 330.648 416.709C339.393 410.823 351.549 402.839 365.162 394.301C378.776 385.763 391.272 378.293 400.367 372.989C404.914 370.348 408.616 368.22 411.181 366.782L414.096 365.131L414.874 364.713L415.155 364.578Z" fill="#211F54"/>
</g>
<defs>
<clipPath id="clip0_1_1433">
<rect width="686" height="589" fill="white"/>
</clipPath>
</defs>
</svg>
