<svg width="1012" height="570" viewBox="0 0 1012 570" fill="none" xmlns="http://www.w3.org/2000/svg">
<g clip-path="url(#clip0_1_320)">
<g clip-path="url(#clip1_1_320)">
<path d="M1012 0H0V570H1012V0Z" fill="#CEE5FF"/>
<mask id="mask0_1_320" style="mask-type:alpha" maskUnits="userSpaceOnUse" x="0" y="0" width="1012" height="570">
<path d="M1012 0H0V570H1012V0Z" fill="#CEE5FF"/>
</mask>
<g mask="url(#mask0_1_320)">
<path d="M913.641 54.2383H567.216V629.626H913.641V54.2383Z" fill="#AFD3FF"/>
<path d="M887.645 82.8865H593.232V450.625H887.645V82.8865Z" fill="#E3F0FF"/>
<path d="M887.646 474.256C865.206 474.613 842.767 474.844 820.328 474.95C797.916 475.168 775.503 475.128 753.011 475.207L753.962 474.256C753.962 483.752 753.962 493.248 753.962 502.745L753.922 531.214C753.724 550.206 753.546 569.199 753.11 588.191C752.655 569.199 752.477 550.206 752.279 531.214V502.745C752.279 493.248 752.279 483.752 752.279 474.256V473.264H753.229C775.642 473.264 798.054 473.264 820.546 473.522C843.038 473.78 865.233 473.899 887.646 474.256Z" fill="#6FAFFF"/>
<path d="M753.169 604.448C775.608 604.091 798.047 603.853 820.486 603.734C842.899 603.516 865.312 603.576 887.804 603.496L886.853 604.448C886.853 595.13 886.853 585.832 886.853 576.514L886.972 548.561C887.15 529.945 887.328 511.309 887.764 492.693C888.219 511.309 888.398 529.945 888.576 548.561L888.695 576.514C888.695 585.832 888.794 595.13 888.695 604.448V605.419H887.744C865.332 605.32 842.919 605.419 820.427 605.162C797.935 604.904 775.582 604.825 753.169 604.448Z" fill="#6FAFFF"/>
<path d="M765.841 553.794H774.395V520.924H765.841V553.794Z" fill="#6FAFFF"/>
<path d="M593.232 474.256C615.671 473.899 638.11 473.667 660.549 473.562C682.962 473.344 705.374 473.383 727.866 473.304H728.816V474.256C728.816 483.752 728.816 493.248 728.816 502.744V531.213C728.618 550.206 728.44 569.199 727.985 588.191C727.549 569.199 727.371 550.206 727.173 531.213V502.744C727.173 493.248 727.173 483.752 727.173 474.256L728.123 475.207C705.711 475.207 683.298 475.207 660.806 474.949C638.315 474.692 615.645 474.612 593.232 474.256Z" fill="#6FAFFF"/>
<path d="M727.708 604.448C705.295 604.825 682.882 605.023 660.39 605.162C637.899 605.3 615.565 605.32 593.073 605.419H592.123V604.448C592.123 595.13 592.123 585.832 592.123 576.514L592.242 548.561C592.42 529.945 592.598 511.309 593.054 492.693C593.489 511.309 593.667 529.945 593.846 548.561L593.964 576.514C593.964 585.832 594.063 595.13 593.964 604.448L593.014 603.496C615.427 603.496 637.839 603.496 660.331 603.734C682.823 603.972 705.295 604.111 727.708 604.448Z" fill="#8DBDF9"/>
<path d="M715.036 520.905H706.482V553.775H715.036V520.905Z" fill="#8DBDF9"/>
<path d="M887.645 74.0042H593.232V82.8857H887.645V74.0042Z" fill="#D5E8FF"/>
<path d="M887.645 199.537H593.232V208.419H887.645V199.537Z" fill="#D5E8FF"/>
<path d="M887.645 325.071H593.232V333.952H887.645V325.071Z" fill="#D5E8FF"/>
<path d="M648.373 199.518V99.5588H618.08V199.518H648.373Z" fill="#8DBDF9"/>
<path d="M648.373 171.188V160.204H618.08V171.188H648.373Z" fill="#CBE2FF"/>
<path d="M648.373 123.348V119.264H618.08V123.348H648.373Z" fill="#CBE2FF"/>
<path d="M844.582 99.5786V199.537H874.875V99.5786H844.582Z" fill="#8DBDF9"/>
<path d="M844.582 127.909V138.892H874.875V127.909H844.582Z" fill="#CBE2FF"/>
<path d="M874.895 193.571V189.487H844.602V193.571H874.895Z" fill="#CBE2FF"/>
<path d="M874.875 174.795V170.711H844.582V174.795H874.875Z" fill="#CBE2FF"/>
<path d="M790.035 199.518V99.5588H767.048V199.518H790.035Z" fill="#8DBDF9"/>
<path d="M790.055 171.188V160.204H767.068V171.188H790.055Z" fill="#CBE2FF"/>
<path d="M790.055 123.369V119.285H767.068V123.369H790.055Z" fill="#CBE2FF"/>
<path d="M669.558 199.517V82.9055H648.373V199.517H669.558Z" fill="#CBE2FF"/>
<path d="M665.222 138.714V93.8696H652.511V138.714H665.222Z" fill="#F4F9FF"/>
<path d="M874.895 89.8635V199.517H887.665V89.8635H874.895Z" fill="#A7CEFF"/>
<path d="M877.488 97.4568V139.625H885.15V97.4568H877.488Z" fill="#F4F9FF"/>
<path d="M790.055 92.8967V199.517H811.24V92.8967H790.055Z" fill="#CBE2FF"/>
<path d="M794.392 148.508V189.506H807.103V148.508H794.392Z" fill="#F4F9FF"/>
<path d="M705.493 199.537V110.958H669.537V199.537H705.493Z" fill="#A7CEFF"/>
<path d="M705.493 190.14V181.893H669.537V190.14H705.493Z" fill="#8DBDF9"/>
<path d="M705.493 176.461V173.269H669.537V176.461H705.493Z" fill="#8DBDF9"/>
<path d="M618.08 199.558V116.312H593.232V199.558H618.08Z" fill="#A7CEFF"/>
<path d="M618.08 190.695V182.943H593.232V190.695H618.08Z" fill="#8DBDF9"/>
<path d="M618.08 141.192V133.441H593.232V141.192H618.08Z" fill="#8DBDF9"/>
<path d="M618.061 149.538V146.524H593.213V149.538H618.061Z" fill="#8DBDF9"/>
<path d="M844.582 199.537V82.9055H811.22V199.537H844.582Z" fill="#A7CEFF"/>
<path d="M844.582 187.166V176.302H811.22V187.166H844.582Z" fill="#8DBDF9"/>
<path d="M844.582 117.817V106.953H811.22V117.817H844.582Z" fill="#8DBDF9"/>
<path d="M844.582 129.495V125.272H811.22V129.495H844.582Z" fill="#8DBDF9"/>
<path d="M766.988 195.636L735.538 100.412L723.751 104.315L755.202 199.539L766.988 195.636Z" fill="#A7CEFF"/>
<path d="M763.676 185.541L760.742 176.656L748.955 180.559L751.89 189.444L763.676 185.541Z" fill="#8DBDF9"/>
<path d="M744.963 128.921L742.028 120.036L730.242 123.939L733.176 132.824L744.963 128.921Z" fill="#8DBDF9"/>
<path d="M705.513 87.3464V199.537H723.768V87.3464H705.513Z" fill="#8DBDF9"/>
<path d="M705.513 99.2417V109.69H723.768V99.2417H705.513Z" fill="#F4F9FF"/>
<path d="M705.493 165.973V176.421H723.747V165.973H705.493Z" fill="#F4F9FF"/>
<path d="M705.513 154.733V158.797H723.768V154.733H705.513Z" fill="#F4F9FF"/>
<path d="M819.497 325.051V225.092H789.204V325.051H819.497Z" fill="#8DBDF9"/>
<path d="M819.496 296.72V285.737H789.204V296.72H819.496Z" fill="#CBE2FF"/>
<path d="M819.496 248.883V244.799H789.204V248.883H819.496Z" fill="#CBE2FF"/>
<path d="M605.982 225.092V325.051H636.275V225.092H605.982Z" fill="#8DBDF9"/>
<path d="M606.002 253.422V264.405H636.295V253.422H606.002Z" fill="#CBE2FF"/>
<path d="M636.295 319.104V315.02H606.003V319.104H636.295Z" fill="#CBE2FF"/>
<path d="M636.295 300.309V296.225H606.003V300.309H636.295Z" fill="#CBE2FF"/>
<path d="M713.809 325.031V225.072H690.822V325.031H713.809Z" fill="#8DBDF9"/>
<path d="M713.809 296.72V285.737H690.822V296.72H713.809Z" fill="#CBE2FF"/>
<path d="M713.809 248.883V244.799H690.822V248.883H713.809Z" fill="#CBE2FF"/>
<path d="M789.184 325.051V208.439H767.999V325.051H789.184Z" fill="#CBE2FF"/>
<path d="M785.046 264.227V219.382H772.335V264.227H785.046Z" fill="#F4F9FF"/>
<path d="M593.232 239.683V325.031H606.002V239.683H593.232Z" fill="#A7CEFF"/>
<path d="M595.707 245.571V278.401H603.369V245.571H595.707Z" fill="#F4F9FF"/>
<path d="M669.657 218.411V325.031H690.842V218.411H669.657Z" fill="#CBE2FF"/>
<path d="M673.795 274.021V315.02H686.506V274.021H673.795Z" fill="#F4F9FF"/>
<path d="M768.019 325.072V236.492H732.063V325.072H768.019Z" fill="#A7CEFF"/>
<path d="M768.019 315.654V307.407H732.063V315.654H768.019Z" fill="#8DBDF9"/>
<path d="M768.039 301.994V298.802H732.084V301.994H768.039Z" fill="#8DBDF9"/>
<path d="M887.645 325.051V218.411H862.797V325.051H887.645Z" fill="#A7CEFF"/>
<path d="M887.665 313.751V303.818H862.817V313.751H887.665Z" fill="#8DBDF9"/>
<path d="M887.645 250.33V240.397H862.797V250.33H887.645Z" fill="#8DBDF9"/>
<path d="M887.645 261.015V257.169H862.797V261.015H887.645Z" fill="#8DBDF9"/>
<path d="M669.657 325.071V208.439H636.296V325.071H669.657Z" fill="#A7CEFF"/>
<path d="M669.657 312.68V301.816H636.296V312.68H669.657Z" fill="#8DBDF9"/>
<path d="M669.657 243.331V232.467H636.296V243.331H669.657Z" fill="#8DBDF9"/>
<path d="M669.657 255.009V250.786H636.296V255.009H669.657Z" fill="#8DBDF9"/>
<path d="M831.3 325.068L862.75 229.844L850.964 225.941L819.514 321.165L831.3 325.068Z" fill="#CBE2FF"/>
<path d="M834.639 315L837.574 306.116L825.787 302.213L822.853 311.097L834.639 315Z" fill="#8DBDF9"/>
<path d="M853.332 258.36L856.267 249.475L844.48 245.572L841.546 254.457L853.332 258.36Z" fill="#8DBDF9"/>
<path d="M713.809 212.86V325.051H732.064V212.86H713.809Z" fill="#CBE2FF"/>
<path d="M713.809 224.775V235.223H732.064V224.775H713.809Z" fill="#F4F9FF"/>
<path d="M713.809 291.507V301.955H732.064V291.507H713.809Z" fill="#F4F9FF"/>
<path d="M713.809 280.245V284.31H732.064V280.245H713.809Z" fill="#F4F9FF"/>
<path d="M637.384 450.604V350.645H614.397V450.604H637.384Z" fill="#8DBDF9"/>
<path d="M637.384 422.293V411.31H614.397V422.293H637.384Z" fill="#CBE2FF"/>
<path d="M637.384 374.456V370.372H614.397V374.456H637.384Z" fill="#CBE2FF"/>
<path d="M614.397 450.624V334.012H593.212V450.624H614.397Z" fill="#CBE2FF"/>
<path d="M610.26 389.8V344.956H597.549V389.8H610.26Z" fill="#F4F9FF"/>
<path d="M637.384 362.045V450.624H673.339V362.045H637.384Z" fill="#A7CEFF"/>
<path d="M637.384 371.442V379.689H673.339V371.442H637.384Z" fill="#8DBDF9"/>
<path d="M637.384 385.121V388.313H673.339V385.121H637.384Z" fill="#8DBDF9"/>
<path d="M866.995 450.604V350.645H848.344V450.604H866.995Z" fill="#8DBDF9"/>
<path d="M866.995 422.274V411.291H848.344V422.274H866.995Z" fill="#CBE2FF"/>
<path d="M866.995 374.436V370.352H848.344V374.436H866.995Z" fill="#CBE2FF"/>
<path d="M673.358 341.942V450.624H697.474V341.942H673.358Z" fill="#8DBDF9"/>
<path d="M673.339 372.73V384.665H697.455V372.73H673.339Z" fill="#CBE2FF"/>
<path d="M697.454 444.121V439.68H673.339V444.121H697.454Z" fill="#CBE2FF"/>
<path d="M697.475 423.702V419.261H673.359V423.702H697.475Z" fill="#CBE2FF"/>
<path d="M754.337 450.584V337.838H731.351V450.584H754.337Z" fill="#8DBDF9"/>
<path d="M754.337 418.625V406.235H731.351V418.625H754.337Z" fill="#CBE2FF"/>
<path d="M754.337 364.682V360.082H731.351V364.682H754.337Z" fill="#CBE2FF"/>
<path d="M709.69 450.584V338.413H697.455V450.584H709.69Z" fill="#CBE2FF"/>
<path d="M707.295 392.119V348.98H699.949V392.119H707.295Z" fill="#F4F9FF"/>
<path d="M808.567 343.984V450.604H848.344V343.984H808.567Z" fill="#CBE2FF"/>
<path d="M816.349 399.574V440.573H840.207V399.574H816.349Z" fill="#F4F9FF"/>
<path d="M808.567 450.604V355.344H772.612V450.604H808.567Z" fill="#A7CEFF"/>
<path d="M808.567 440.513V431.631H772.612V440.513H808.567Z" fill="#8DBDF9"/>
<path d="M808.567 425.823V422.373H772.612V425.823H808.567Z" fill="#8DBDF9"/>
<path d="M887.665 450.605V343.965H867.015V450.605H887.665Z" fill="#A7CEFF"/>
<path d="M887.645 439.304V429.372H866.994V439.304H887.645Z" fill="#8DBDF9"/>
<path d="M887.665 375.883V365.95H867.015V375.883H887.665Z" fill="#8DBDF9"/>
<path d="M887.645 386.549V382.703H866.994V386.549H887.645Z" fill="#8DBDF9"/>
<path d="M731.371 450.604V349.615H709.691V450.604H731.371Z" fill="#A7CEFF"/>
<path d="M731.351 439.918V430.501H709.671V439.918H731.351Z" fill="#8DBDF9"/>
<path d="M731.351 379.868V370.451H709.671V379.868H731.351Z" fill="#8DBDF9"/>
<path d="M731.371 389.939V386.292H709.691V389.939H731.371Z" fill="#8DBDF9"/>
<path d="M754.337 343.27V450.604H772.592V343.27H754.337Z" fill="#CBE2FF"/>
<path d="M754.357 354.65V364.662H772.612V354.65H754.357Z" fill="#F4F9FF"/>
<path d="M754.337 418.487V428.498H772.592V418.487H754.337Z" fill="#F4F9FF"/>
<path d="M754.338 407.742V411.627H772.593V407.742H754.338Z" fill="#F4F9FF"/>
<path d="M270.483 383.545L285.568 386.747L270.483 391.16C269.541 391.433 268.691 391.958 268.024 392.68C267.358 393.401 266.901 394.29 266.702 395.252L262.934 413.35L258.763 395.6C258.531 394.611 258.026 393.707 257.306 392.991C256.586 392.275 255.679 391.775 254.69 391.549L239.605 388.111L255.107 383.74C256.072 383.469 256.944 382.935 257.624 382.198C258.304 381.461 258.766 380.548 258.958 379.563L262.42 362.162L266.326 379.452C266.555 380.461 267.068 381.383 267.805 382.109C268.542 382.835 269.472 383.333 270.483 383.545Z" fill="#E4F0FF"/>
<path d="M200.663 513.263L208.574 514.933L200.649 517.258C200.162 517.404 199.724 517.682 199.383 518.06C199.043 518.438 198.812 518.902 198.716 519.402L196.728 528.896L194.545 519.569C194.429 519.048 194.165 518.571 193.785 518.196C193.406 517.821 192.926 517.563 192.404 517.453L184.494 515.643L192.627 513.346C193.134 513.205 193.592 512.926 193.95 512.54C194.308 512.155 194.553 511.677 194.657 511.161L196.464 502.028L198.508 511.105C198.626 511.632 198.892 512.115 199.273 512.497C199.655 512.879 200.136 513.144 200.663 513.263Z" fill="#E4F0FF"/>
<path d="M312.206 368.343L316.794 369.317L312.206 370.709C311.918 370.788 311.657 370.946 311.453 371.165C311.25 371.384 311.111 371.655 311.052 371.948L309.898 377.517L308.633 372.101C308.559 371.8 308.403 371.526 308.182 371.31C307.961 371.093 307.684 370.943 307.381 370.876L302.793 369.832L307.52 368.44C307.812 368.355 308.074 368.192 308.28 367.969C308.486 367.746 308.627 367.471 308.688 367.173L309.745 361.869L310.927 367.131C311.007 367.432 311.17 367.704 311.395 367.918C311.621 368.132 311.902 368.279 312.206 368.343Z" fill="#E4F0FF"/>
<path d="M334.882 461.462L339.484 462.423L334.882 463.815C334.594 463.899 334.335 464.06 334.132 464.281C333.928 464.502 333.789 464.774 333.728 465.068L332.588 470.566L331.323 465.165C331.247 464.864 331.091 464.589 330.87 464.37C330.649 464.152 330.373 463.998 330.071 463.926L325.483 462.882L330.21 461.49C330.503 461.408 330.767 461.246 330.974 461.022C331.18 460.798 331.32 460.522 331.378 460.223L332.435 454.919L333.617 460.181C333.682 460.494 333.836 460.782 334.06 461.009C334.285 461.236 334.57 461.393 334.882 461.462Z" fill="#E4F0FF"/>
<path d="M222.879 492.13L226.661 492.924L222.879 494.037C222.647 494.109 222.437 494.241 222.271 494.419C222.105 494.597 221.989 494.816 221.934 495.054L220.961 499.592L219.918 495.137C219.857 494.891 219.731 494.667 219.552 494.488C219.373 494.309 219.149 494.182 218.903 494.121L215.149 493.3L219.028 492.2C219.27 492.13 219.487 491.996 219.659 491.812C219.83 491.628 219.949 491.402 220.002 491.156L220.864 486.798L221.837 491.128C221.902 491.375 222.034 491.599 222.218 491.775C222.402 491.952 222.631 492.075 222.879 492.13Z" fill="#E4F0FF"/>
<path d="M474.231 535.133L478.012 535.927L474.231 537.026C473.996 537.099 473.785 537.233 473.619 537.414C473.453 537.595 473.338 537.817 473.285 538.057L472.34 542.581L471.297 538.14C471.236 537.894 471.109 537.67 470.931 537.491C470.752 537.312 470.528 537.185 470.282 537.124L466.5 536.261L470.379 535.175C470.618 535.103 470.833 534.968 471.002 534.784C471.171 534.601 471.287 534.375 471.339 534.131L472.215 529.773L473.188 534.103C473.249 534.355 473.378 534.585 473.563 534.767C473.747 534.949 473.978 535.076 474.231 535.133Z" fill="#E0E0E0"/>
<path d="M373.685 272.593L377.466 273.4L373.685 274.5C373.45 274.573 373.239 274.706 373.073 274.887C372.907 275.068 372.792 275.29 372.739 275.53L371.794 280.054L370.751 275.614C370.69 275.368 370.564 275.143 370.385 274.964C370.206 274.785 369.982 274.658 369.736 274.597L365.955 273.734L369.834 272.634C370.075 272.565 370.293 272.431 370.464 272.247C370.635 272.063 370.754 271.836 370.807 271.59L371.669 267.233L372.642 271.562C372.703 271.814 372.833 272.044 373.017 272.226C373.201 272.408 373.432 272.535 373.685 272.593Z" fill="#E4F0FF"/>
<path d="M723.858 396.505L727.64 397.313L723.858 398.412C723.624 398.485 723.413 398.619 723.247 398.8C723.081 398.981 722.965 399.203 722.913 399.443L721.967 403.967L720.924 399.526C720.862 399.279 720.734 399.053 720.552 398.874C720.371 398.694 720.144 398.569 719.896 398.51L716.128 397.647L720.007 396.547C720.248 396.485 720.467 396.355 720.637 396.172C720.807 395.99 720.921 395.762 720.966 395.517L721.842 391.146L722.815 395.475C722.876 395.727 723.006 395.957 723.19 396.139C723.374 396.321 723.606 396.448 723.858 396.505Z" fill="#E0E0E0"/>
<path d="M661.211 287.697L664.993 288.49L661.211 289.604C660.979 289.675 660.769 289.807 660.603 289.985C660.437 290.164 660.321 290.383 660.266 290.62L659.321 295.158L658.278 290.704C658.216 290.456 658.087 290.23 657.906 290.051C657.724 289.872 657.497 289.746 657.249 289.687L653.481 288.838L657.36 287.738C657.599 287.666 657.814 287.532 657.983 287.348C658.152 287.164 658.268 286.938 658.32 286.694L659.196 282.337L660.169 286.666C660.23 286.918 660.359 287.148 660.544 287.33C660.728 287.512 660.959 287.639 661.211 287.697Z" fill="#E0E0E0"/>
<path d="M530.997 78.5997L534.765 79.4071L530.997 80.5069C530.763 80.5798 530.552 80.7135 530.386 80.8944C530.219 81.0753 530.104 81.2971 530.051 81.5371L529.106 86.0615L528.063 81.6206C528.001 81.373 527.873 81.1473 527.691 80.9681C527.51 80.7889 527.283 80.663 527.035 80.6043L523.253 79.7412L527.146 78.6414C527.384 78.5695 527.599 78.4346 527.768 78.2509C527.937 78.0672 528.053 77.8415 528.105 77.5973L528.967 73.24L529.954 77.5695C530.015 77.8214 530.145 78.0512 530.329 78.2332C530.513 78.4152 530.745 78.5421 530.997 78.5997Z" fill="#E4F0FF"/>
<path d="M373.782 477.346L381.428 478.974L373.782 481.202C373.305 481.346 372.875 481.615 372.537 481.983C372.199 482.35 371.967 482.802 371.863 483.29L369.945 492.45L367.831 483.457C367.712 482.957 367.456 482.5 367.093 482.136C366.73 481.772 366.273 481.516 365.774 481.397L358.113 479.657L365.982 477.429C366.469 477.291 366.909 477.022 367.255 476.651C367.6 476.281 367.838 475.823 367.943 475.327L369.694 466.501L371.669 475.271C371.79 475.781 372.053 476.246 372.427 476.613C372.801 476.98 373.27 477.234 373.782 477.346Z" fill="#E0E0E0"/>
<path d="M389.951 310.597L397.598 312.212L389.951 314.453C389.475 314.596 389.047 314.864 388.709 315.228C388.372 315.593 388.138 316.042 388.032 316.528L386.128 325.702L384.015 316.695C383.892 316.195 383.633 315.74 383.267 315.378C382.902 315.017 382.443 314.764 381.943 314.648L374.296 312.908L382.165 310.681C382.652 310.539 383.09 310.267 383.433 309.894C383.776 309.521 384.011 309.061 384.112 308.565L385.864 299.739L387.838 308.509C387.957 309.021 388.219 309.49 388.593 309.859C388.967 310.229 389.438 310.485 389.951 310.597Z" fill="#E4F0FF"/>
<path d="M496.684 32.2841L504.331 33.899L496.684 36.1403C496.204 36.282 495.771 36.5508 495.431 36.9184C495.091 37.2859 494.856 37.7385 494.752 38.2285L492.847 47.3887L490.678 38.3816C490.555 37.8822 490.297 37.4266 489.931 37.0654C489.565 36.7042 489.107 36.4514 488.607 36.3352L480.96 34.595L488.829 32.3676C489.313 32.2269 489.75 31.957 490.093 31.5867C490.436 31.2164 490.672 30.7597 490.775 30.2655L492.527 21.4395L494.515 30.1959C494.639 30.7156 494.909 31.1889 495.293 31.5591C495.678 31.9294 496.161 32.181 496.684 32.2841Z" fill="#E4F0FF"/>
<path d="M715.586 221.056L728.724 223.84L715.586 227.682C714.762 227.922 714.019 228.381 713.436 229.012C712.853 229.642 712.452 230.419 712.277 231.26L708.954 247.005L705.367 231.58C705.161 230.719 704.719 229.933 704.09 229.311C703.461 228.688 702.67 228.254 701.808 228.058L688.67 225.065L702.184 221.251C703.022 221.012 703.778 220.546 704.369 219.905C704.96 219.264 705.363 218.473 705.534 217.617L708.551 202.443L711.957 217.506C712.163 218.382 712.613 219.181 713.256 219.81C713.898 220.438 714.707 220.871 715.586 221.056Z" fill="#E4F0FF"/>
<path d="M318.087 0.431641H195.088V128.827H318.087V0.431641Z" fill="#8DC0FF"/>
<path d="M309.745 0.431641H186.746V128.827H309.745V0.431641Z" fill="#E6F1FF"/>
<path d="M309.787 128.855H186.718V0.390137H309.787V128.855ZM186.788 128.786H309.717V0.487585H186.788V128.786Z" fill="#E0E0E0"/>
<path d="M293.229 17.6946H203.291V111.566H293.229V17.6946Z" fill="#FAFAFA"/>
<path d="M203.29 112.192C202.646 113.13 201.9 113.993 201.066 114.767C199.676 116.284 197.618 118.345 195.352 120.572C193.086 122.8 191.014 124.749 189.471 126.21C188.698 127.035 187.824 127.76 186.871 128.368C187.515 127.43 188.256 126.562 189.082 125.779C190.472 124.261 192.543 122.215 194.81 119.974C197.076 117.732 199.161 115.797 200.705 114.336C201.475 113.517 202.343 112.797 203.29 112.192Z" fill="#B8D9FF"/>
<path d="M293.256 111.955C294.204 112.592 295.072 113.34 295.842 114.183C297.358 115.575 299.415 117.635 301.64 119.904C303.864 122.174 305.811 124.248 307.201 125.779C308.024 126.559 308.752 127.432 309.37 128.382C308.424 127.759 307.56 127.02 306.798 126.183C305.282 124.791 303.225 122.716 301 120.447C298.776 118.178 296.829 116.076 295.356 114.545C294.558 113.766 293.853 112.897 293.256 111.955Z" fill="#B8D9FF"/>
<path d="M292.978 17.9448C293.611 16.9982 294.353 16.1292 295.189 15.3554C296.579 13.838 298.65 11.7916 300.917 9.55027C303.183 7.30895 305.254 5.37389 306.784 3.98177C307.555 3.1504 308.428 2.42064 309.383 1.81006C308.75 2.74005 308.003 3.58661 307.159 4.3298C305.769 5.84722 303.697 7.90756 301.431 10.1489C299.165 12.3902 297.079 14.3253 295.55 15.787C294.78 16.6047 293.917 17.3289 292.978 17.9448Z" fill="#B8D9FF"/>
<path d="M203.04 18.168C202.095 17.5338 201.227 16.791 200.454 15.9546C198.939 14.5624 196.895 12.4882 194.67 10.219C192.446 7.94984 190.5 5.87557 189.109 4.34424C188.293 3.55876 187.566 2.68575 186.94 1.74097C187.888 2.36676 188.752 3.11054 189.512 3.95444C191.028 5.34657 193.086 7.42083 195.324 9.69C197.562 11.9592 199.495 14.0473 200.885 15.5787C201.703 16.354 202.426 17.2231 203.04 18.168Z" fill="#B8D9FF"/>
<path d="M292.978 111.565C292.968 111.412 292.968 111.259 292.978 111.106C292.978 110.786 292.978 110.354 292.978 109.797C292.978 108.614 292.978 106.929 292.978 104.73C292.978 100.275 292.978 93.8156 292.881 85.6021C292.881 69.1611 292.784 45.7316 292.714 17.6943L293.062 18.0423H203.374L203.763 17.6525C203.763 52.1076 203.763 84.3353 203.763 111.523L203.429 111.175L268.37 111.356L286.611 111.44H291.435H292.672H293.117H292.714H291.504H286.75L268.579 111.537L203.29 111.858H202.887V111.523C202.887 84.3353 202.887 52.1076 202.887 17.6525V17.2488H203.29H292.978H293.326V17.5968C293.242 45.7316 293.187 69.2307 293.145 85.7274C293.145 93.8992 293.145 100.345 293.048 104.772C293.048 106.943 293.048 108.614 293.048 109.769C293.048 110.312 293.048 110.744 293.048 111.05C293.048 111.356 292.978 111.565 292.978 111.565Z" fill="#B8D9FF"/>
<path d="M263.253 49.6018H233.251V79.6439H263.253V49.6018Z" fill="#4B3CFB"/>
<path d="M317.976 160.791H194.977V289.187H317.976V160.791Z" fill="#8DC0FF"/>
<path d="M309.634 160.791H186.635V289.187H309.634V160.791Z" fill="#E6F1FF"/>
<path d="M309.69 289.228H186.607V160.763H309.69V289.228ZM186.676 289.145H309.606V160.833H186.676V289.145Z" fill="#E0E0E0"/>
<path d="M293.117 178.053H203.179V271.924H293.117V178.053Z" fill="#FAFAFA"/>
<path d="M203.179 272.551C202.538 273.495 201.791 274.364 200.955 275.14C199.564 276.657 197.507 278.704 195.241 280.945C192.974 283.186 190.903 285.121 189.36 286.514C188.579 287.335 187.706 288.063 186.76 288.685C187.404 287.764 188.15 286.918 188.984 286.166C190.375 284.648 192.446 282.588 194.712 280.346C196.978 278.105 199.064 276.17 200.607 274.708C201.377 273.891 202.24 273.166 203.179 272.551Z" fill="#B8D9FF"/>
<path d="M293.104 272.328C294.053 272.957 294.921 273.7 295.689 274.541C297.205 275.933 299.263 278.008 301.487 280.263C303.711 282.518 305.658 284.62 307.048 286.151C307.878 286.924 308.607 287.798 309.217 288.755C308.277 288.119 307.414 287.376 306.645 286.541C305.13 285.149 303.072 283.075 300.847 280.806C298.623 278.537 296.677 276.448 295.203 274.917C294.409 274.135 293.705 273.267 293.104 272.328Z" fill="#B8D9FF"/>
<path d="M292.867 178.304C293.503 177.364 294.245 176.5 295.078 175.729C296.468 174.211 298.54 172.151 300.806 169.923C303.072 167.696 305.143 165.747 306.673 164.285C307.45 163.464 308.323 162.74 309.273 162.127C308.641 163.067 307.898 163.927 307.062 164.689C305.672 166.206 303.6 168.267 301.334 170.508C299.068 172.749 296.982 174.684 295.453 176.146C294.684 176.97 293.815 177.695 292.867 178.304Z" fill="#B8D9FF"/>
<path d="M202.887 178.541C201.944 177.898 201.077 177.151 200.301 176.313C198.786 174.921 196.742 172.861 194.518 170.592C192.293 168.323 190.375 166.248 188.984 164.759C188.164 163.977 187.437 163.103 186.815 162.156C187.754 162.792 188.617 163.535 189.387 164.369C190.903 165.761 192.961 167.835 195.199 170.105C197.437 172.374 199.37 174.462 200.76 176.007C201.569 176.762 202.284 177.613 202.887 178.541Z" fill="#B8D9FF"/>
<path d="M292.867 271.952C292.855 271.803 292.855 271.654 292.867 271.506C292.867 271.186 292.867 270.754 292.867 270.184C292.867 269.014 292.867 267.316 292.867 265.116C292.867 260.675 292.867 254.202 292.77 245.989C292.77 229.548 292.672 206.132 292.603 178.081L292.95 178.429H203.263L203.652 178.025C203.652 212.48 203.652 244.722 203.652 271.896L203.318 271.562L268.259 271.729L286.499 271.826H291.324H293.006C292.872 271.839 292.737 271.839 292.603 271.826H291.393H286.638L268.467 271.91L203.318 272.091H202.887V271.952C202.887 244.777 202.887 212.536 202.887 178.081V177.691H203.29H292.978H293.256V178.039C293.173 206.174 293.117 229.673 293.075 246.17C293.075 254.355 293.006 260.801 292.978 265.228C292.978 267.399 292.978 269.07 292.978 270.225C292.978 270.768 292.978 271.186 292.978 271.492C292.95 271.647 292.913 271.801 292.867 271.952Z" fill="#B8D9FF"/>
<path d="M263.157 209.974H233.141V240.016H263.157V209.974Z" fill="#4B3CFB"/>
<path d="M394.665 433.201L374.533 468.867L402.659 497.211L432.119 465.206L394.665 433.201Z" fill="#FFBE9D"/>
<path d="M220.961 545.253L259.069 544.349C259.069 544.349 279.02 532.237 280.591 531.332C282.162 530.427 291.24 528.548 291.24 528.548L351.649 547.495V553.063H210.2V548.845L216.707 548.163L220.961 545.253Z" fill="#87BDFF"/>
<path d="M376.743 463.814C375.603 463.633 343.543 513.666 343.543 513.666L305.24 520.696L262.781 544.362C262.781 544.362 261.822 549.165 266.618 549.485C271.415 549.805 297.205 538.348 297.205 538.348C297.205 538.348 288.376 542.65 290.058 548.19C292.033 554.692 308.688 549.582 308.688 549.582L344.266 547.272C345.9 547.165 347.493 546.716 348.942 545.953C350.391 545.191 351.663 544.132 352.677 542.845L357.21 537.109L407.01 497.475C407.01 497.475 402.603 467.642 376.743 463.814Z" fill="#133578"/>
<path d="M319.95 531.221C319.714 531.563 319.428 531.868 319.102 532.126C318.265 532.877 317.378 533.57 316.447 534.2C315.06 535.147 313.573 535.937 312.012 536.553C310.082 537.278 308.051 537.696 305.992 537.792C303.983 537.837 301.977 537.995 299.986 538.265C298.409 538.648 296.893 539.248 295.481 540.047C293.02 541.439 291.755 542.623 291.672 542.525C291.588 542.428 291.908 542.149 292.506 541.606C293.35 540.86 294.257 540.19 295.217 539.602C296.652 538.71 298.213 538.039 299.847 537.611C301.862 537.295 303.897 537.114 305.936 537.068C309.575 536.878 313.102 535.74 316.169 533.769C318.546 532.279 319.867 531.124 319.95 531.221Z" fill="white"/>
<path d="M348.632 525.318C348.437 525.318 347.965 522.534 346.394 519.36C345.339 517.498 344.387 515.578 343.543 513.611C345.006 515.217 346.19 517.057 347.047 519.054C348.139 520.957 348.688 523.124 348.632 525.318Z" fill="white"/>
<path d="M358.28 528.325C357.431 527.935 356.651 527.408 355.972 526.765C352.511 523.871 349.761 520.217 347.936 516.088C347.501 515.256 347.205 514.357 347.061 513.429C348.518 516.196 350.138 518.873 351.913 521.447C353.893 523.868 356.02 526.165 358.28 528.325Z" fill="white"/>
<path d="M370.014 518.01C369.888 517.604 369.823 517.182 369.82 516.757C369.82 515.949 369.681 514.78 369.667 513.332C369.615 509.554 369.871 505.778 370.431 502.042C370.999 498.3 371.859 494.609 373.003 491.002C373.448 489.61 373.851 488.524 374.171 487.773C374.292 487.371 374.475 486.99 374.713 486.645C374.392 488.169 373.988 489.675 373.504 491.155C371.482 498.381 370.366 505.831 370.181 513.332C370.208 514.893 370.153 516.454 370.014 518.01Z" fill="white"/>
<g opacity="0.3">
<path opacity="0.3" d="M373.393 491.253C370.667 498.904 369.564 507.04 370.153 515.142C372.787 507.469 373.888 499.352 373.393 491.253Z" fill="#133578"/>
</g>
<path d="M535.334 571.174L539.338 539.239L691.061 454.751C691.061 454.751 713.305 490.765 721.814 571.202L615.206 570.701L535.334 571.174Z" fill="#133578"/>
<path d="M454.989 258.879L435.636 280.429L432.438 323.335L469.671 399.776L512.366 489.763C515.884 497.489 519.429 515.295 516.927 525.415C516.927 525.415 509.975 549.917 545.261 551.546C564.502 552.437 586.636 547.369 602.777 542.539L603.194 542.413C630.797 534.238 654.098 515.549 668.093 490.362L692.854 456.129C687.376 434.788 678.951 440.607 675.628 432.547C659.612 393.832 646.432 365.864 646.432 365.864L593.379 243.468C585.44 225.496 575.43 218.911 563.766 216.03C555.117 213.951 546.096 213.979 537.461 216.113L511.393 222.392L454.989 258.879Z" fill="#0075FF"/>
<path d="M434.371 480.534C445.243 468.005 462.872 381.623 462.872 381.623L435.636 280.43C435.636 280.43 423.04 294.783 419.133 308.509L396.305 429.443C396.305 429.443 387.963 431.183 388.047 444.005C388.06 452.636 434.371 480.534 434.371 480.534Z" fill="#0075FF"/>
<path d="M483.101 427.632C482.904 427.36 482.732 427.071 482.586 426.769L481.196 424.235L476.344 414.839C472.284 406.806 466.723 395.85 460.592 383.739L445.076 352.541L440.433 343.047C439.918 341.975 439.515 341.112 439.209 340.457C439.045 340.162 438.915 339.849 438.82 339.525C439.018 339.795 439.19 340.084 439.334 340.388L440.725 342.921L445.577 352.318C449.636 360.337 455.197 371.307 461.329 383.432L476.9 414.63L481.544 424.124C482.044 425.196 482.447 426.059 482.767 426.713C482.913 427.006 483.025 427.314 483.101 427.632Z" fill="#133578"/>
<path d="M675.1 440.956C675.028 441.354 674.921 441.745 674.78 442.125L673.724 445.438L672.945 447.833C672.639 448.71 672.264 449.629 671.874 450.617C671.082 452.622 670.276 454.933 669.094 457.369C668.538 458.608 667.954 459.902 667.356 461.253C666.758 462.603 665.966 463.94 665.284 465.36C663.894 468.227 662.142 471.137 660.349 474.241C652.327 487.566 642.307 499.577 630.638 509.852C627.858 512.163 625.341 514.418 622.783 516.297C621.504 517.244 620.322 518.218 619.113 519.082C617.903 519.945 616.722 520.71 615.609 521.49C613.413 523.063 611.286 524.274 609.464 525.416C608.547 525.973 607.699 526.502 606.906 526.961L604.682 528.103L601.609 529.731C601.254 529.929 600.887 530.106 600.511 530.26C600.833 530.012 601.178 529.793 601.54 529.606L604.543 527.852L606.711 526.613C607.504 526.14 608.338 525.583 609.242 525.012C611.035 523.843 613.135 522.604 615.303 521.003L618.765 518.567C619.961 517.717 621.143 516.743 622.394 515.782C624.938 513.889 627.469 511.606 630.18 509.323C641.749 499.044 651.72 487.093 659.765 473.865C661.558 470.789 663.324 467.893 664.728 465.053C665.451 463.661 666.202 462.269 666.828 460.974L668.621 457.132C669.803 454.71 670.651 452.427 671.471 450.45C671.874 449.448 672.264 448.529 672.597 447.666L673.432 445.299L674.613 442.028C674.75 441.659 674.913 441.301 675.1 440.956Z" fill="#133578"/>
<g opacity="0.3">
<path opacity="0.3" d="M577.07 436.222C588.415 436.013 604.431 434.12 615.331 430.946C626.231 427.772 636.658 422.301 644.458 414.087C652.257 405.874 657.304 394.598 656.97 383.307C650.561 397.243 638.049 409.939 623.826 417.15C619.085 419.558 610.535 423.763 609.561 422.51L577.07 436.222Z" fill="#133578"/>
</g>
<path d="M527.715 418.417C529.689 416.231 578.196 379.911 578.196 379.911L617.973 422.078L551.1 450.366L527.715 418.417Z" fill="#FFBE9D"/>
<path d="M608.352 427.104C617.305 423.485 625.953 419.656 631.82 415.132C659.626 393.651 661.461 374.273 657.846 360.101C653.884 344.509 590.64 234.81 583.66 227.752C576.681 220.694 554.631 209.39 532.595 234.573C519.804 249.204 545.233 290.439 545.233 290.439L590.417 369.623C577.696 367.465 571.885 380.538 571.885 380.538L608.352 427.104Z" fill="#0075FF"/>
<path d="M572.844 383.92C572.796 383.766 572.764 383.608 572.747 383.447C572.423 381.171 572.692 378.851 573.525 376.709C574.742 374.093 576.925 372.052 579.615 371.015C583.05 369.654 586.746 369.079 590.431 369.331L590.153 369.776C585.537 361.744 580.032 352.11 574.095 341.767L553.561 305.572L547.402 294.56C546.721 293.293 546.178 292.291 545.761 291.539C545.565 291.192 545.388 290.834 545.233 290.467C545.482 290.78 545.701 291.115 545.886 291.469C546.331 292.193 546.915 293.182 547.652 294.421L554.006 305.321C559.344 314.606 566.643 327.358 574.735 341.433L590.668 369.512L590.946 369.985H590.39C586.793 369.719 583.181 370.247 579.809 371.53C577.205 372.487 575.069 374.412 573.845 376.904C573.131 378.535 572.775 380.302 572.802 382.083C572.802 383.322 572.886 383.92 572.844 383.92Z" fill="#133578"/>
<path d="M655.872 354.769C656.04 355.057 656.179 355.36 656.289 355.674C656.525 356.273 656.956 357.15 657.332 358.333C658.466 361.663 659.131 365.135 659.306 368.649C659.428 371.08 659.321 373.518 658.986 375.929C658.567 378.69 657.897 381.407 656.984 384.045C655.935 386.934 654.642 389.729 653.119 392.398C651.471 395.252 649.612 397.979 647.558 400.556C640.138 409.489 630.981 416.817 620.642 422.092C617.539 423.713 614.324 425.108 611.021 426.269C609.853 426.714 608.922 426.965 608.31 427.16C607.994 427.274 607.669 427.358 607.337 427.41C607.632 427.256 607.939 427.125 608.255 427.02C608.866 426.784 609.784 426.491 610.924 426.004C614.167 424.733 617.333 423.274 620.406 421.633C630.59 416.256 639.625 408.935 647.002 400.083C649.049 397.539 650.907 394.85 652.563 392.036C654.068 389.393 655.356 386.632 656.414 383.781C657.329 381.184 658.009 378.509 658.444 375.79C658.804 373.423 658.939 371.027 658.847 368.635C658.721 365.154 658.142 361.705 657.123 358.375C656.79 357.191 656.4 356.3 656.22 355.674C656.067 355.388 655.951 355.084 655.872 354.769Z" fill="#133578"/>
<g opacity="0.3">
<path opacity="0.3" d="M590.07 369.623C595.099 370.191 599.954 371.808 604.321 374.369C608.689 376.929 612.473 380.377 615.429 384.49C616.171 385.42 616.693 386.505 616.959 387.664C617.075 388.248 617.023 388.852 616.808 389.407C616.594 389.961 616.227 390.443 615.749 390.797C615.258 391.048 614.71 391.167 614.16 391.143C613.609 391.118 613.074 390.951 612.607 390.658C611.689 390.052 610.872 389.305 610.188 388.444C603.806 381.205 598.384 375.066 590.418 369.623" fill="#133578"/>
</g>
<path d="M614.692 396.992C614.581 396.992 613.649 395.182 611.911 392.287C609.72 388.513 607.193 384.944 604.362 381.623C601.491 378.344 598.275 375.384 594.769 372.797C592.086 370.806 590.292 369.734 590.362 369.623C590.824 369.788 591.267 370.003 591.683 370.263C592.517 370.709 593.671 371.433 595.075 372.379C598.707 374.877 602.009 377.824 604.904 381.15C607.782 384.492 610.282 388.143 612.356 392.036C613.149 393.526 613.747 394.751 614.108 395.614C614.36 396.047 614.556 396.51 614.692 396.992Z" fill="#133578"/>
<path d="M564.363 216.072C560.635 216.212 556.941 216.848 553.38 217.965C549.539 219.231 545.938 221.137 542.73 223.603C538.766 226.572 535.519 230.395 533.23 234.791C530.942 239.186 529.67 244.041 529.509 248.995C529.31 253.036 529.804 257.08 530.969 260.954C532.085 264.522 533.679 267.922 535.709 271.061C535.709 271.061 535.515 270.866 535.209 270.462C534.75 269.868 534.323 269.25 533.93 268.611C532.457 266.271 531.298 263.749 530.482 261.107C529.235 257.187 528.68 253.079 528.841 248.968C528.973 243.906 530.256 238.942 532.593 234.452C534.93 229.963 538.259 226.067 542.327 223.06C545.613 220.589 549.301 218.705 553.227 217.492C555.862 216.678 558.591 216.21 561.346 216.1C562.32 216.016 563.07 216.1 563.585 216.1C563.842 216.06 564.104 216.051 564.363 216.072Z" fill="#133578"/>
<path d="M448.58 454.32L446.856 450.923L442.963 449.155C442.963 449.155 426.279 451.842 422.22 458.788C418.16 465.735 402.088 490.529 402.756 495.471C403.423 500.413 407.649 503.058 410.486 502C413.322 500.942 418.563 494.051 418.563 494.051L420.802 493.758L447.217 499.842L450.359 494.413L425.751 485.336L439.139 484.014L450.86 471.484L448.58 454.32Z" fill="#05C168"/>
<path d="M473.633 496.236C472.852 498.528 472.644 500.976 473.027 503.366C473.41 505.757 474.372 508.017 475.829 509.949C480.167 515.67 486.632 524.65 492.721 532.64C497.476 538.863 529.481 555.346 546.776 563.963C550.018 565.586 553.742 565.96 557.241 565.012C560.74 564.065 563.77 561.864 565.753 558.826C571.906 549.45 576.796 539.302 580.296 528.645C581.408 525.217 581.233 521.501 579.805 518.192C578.377 514.884 575.793 512.21 572.538 510.673L498.088 475.508C496.206 474.618 494.159 474.136 492.078 474.094C489.998 474.051 487.932 474.449 486.016 475.261C484.1 476.073 482.377 477.281 480.959 478.806C479.541 480.332 478.461 482.139 477.79 484.111L473.633 496.236Z" fill="white"/>
<path d="M473.633 496.237C473.633 496.237 473.633 495.972 473.841 495.485L474.55 493.299C475.19 491.364 476.135 488.552 477.331 484.947C477.925 482.884 478.928 480.962 480.278 479.295C481.909 477.311 484.027 475.785 486.423 474.868C489.179 473.803 492.187 473.576 495.071 474.213C496.622 474.617 498.123 475.191 499.548 475.926L504.066 478.042L547.457 498.464L573.08 510.562C575.37 511.729 577.325 513.461 578.76 515.595C580.196 517.728 581.064 520.193 581.283 522.757C581.473 525.365 581.054 527.982 580.06 530.4C579.212 532.85 578.308 535.286 577.279 537.694C575.297 542.464 573.037 547.112 570.508 551.616C569.257 553.834 567.95 555.996 566.588 558.103C565.923 559.183 565.159 560.198 564.308 561.138C562.152 563.396 559.354 564.934 556.293 565.542C553.233 566.15 550.06 565.798 547.207 564.534C542.925 562.474 538.865 560.358 534.82 558.298C526.784 554.121 519.207 550.126 512.227 546.158C508.724 544.182 505.373 542.219 502.231 540.214C499.139 538.379 496.225 536.259 493.528 533.88C492.4 532.642 491.355 531.33 490.4 529.954C489.44 528.645 488.495 527.365 487.619 526.14C485.798 523.662 484.06 521.323 482.447 519.179C480.834 517.035 479.347 515.003 477.957 513.095C476.632 511.43 475.429 509.671 474.356 507.833C473.012 505.179 472.503 502.179 472.896 499.23C473.002 498.206 473.254 497.202 473.647 496.251C473.647 496.251 473.647 496.501 473.452 497.002C473.26 497.739 473.121 498.488 473.035 499.244C472.709 502.159 473.255 505.105 474.606 507.708C475.69 509.519 476.903 511.25 478.235 512.887L482.781 518.928L487.981 525.889L490.831 529.69C491.773 531.05 492.809 532.343 493.931 533.56C496.611 535.897 499.501 537.98 502.565 539.782C505.707 541.759 509.057 543.708 512.561 545.671C519.512 549.611 527.131 553.62 535.153 557.741C539.171 559.773 543.3 561.917 547.527 563.95C549.688 564.905 552.051 565.315 554.407 565.142C556.763 564.97 559.041 564.221 561.04 562.961C562.058 562.318 562.991 561.551 563.821 560.678C564.641 559.773 565.376 558.794 566.018 557.755C567.408 555.653 568.659 553.578 569.897 551.295C572.416 546.82 574.667 542.2 576.64 537.458C577.641 535.063 578.53 532.641 579.42 530.205C580.395 527.884 580.805 525.365 580.616 522.854C580.411 520.414 579.586 518.067 578.221 516.035C576.856 514.003 574.996 512.354 572.816 511.244L547.235 499.105L503.899 478.543L499.395 476.399C498.005 475.677 496.541 475.108 495.029 474.701C492.25 474.082 489.351 474.29 486.688 475.299C484.347 476.173 482.272 477.641 480.668 479.559C479.325 481.2 478.323 483.094 477.72 485.128C476.469 488.719 475.482 491.504 474.815 493.48C474.481 494.399 474.231 495.123 474.036 495.638C473.841 496.153 473.633 496.237 473.633 496.237Z" fill="#133578"/>
<path d="M444.311 466.737C444.311 466.737 446.021 454.459 450.206 453.22C454.391 451.981 480.445 444.157 480.445 444.157L551.851 395.098L579.726 448.653L514.382 475.104C514.382 475.104 511.824 478.459 508.974 477.164C508.974 477.164 504.65 482.426 502.356 482.733C500.062 483.039 500.882 484.278 500.882 484.278C500.882 484.278 481.738 516.297 477.136 516.923C472.534 517.55 466.737 516.687 466.904 512.956C466.904 512.956 458.284 516.088 455.503 512.775C455.503 512.775 448.816 517.87 444.464 512.413C443.326 510.44 442.291 508.41 441.364 506.329C441.364 506.329 435.58 513.499 430.353 511.007C425.376 508.626 426.488 500.914 429.213 496.194C431.938 491.475 444.311 466.737 444.311 466.737Z" fill="#133578"/>
<path d="M417.451 495.722C417.34 495.722 416.937 495.012 416.061 493.94C413.809 491.167 410.579 489.367 407.038 488.914C406.287 488.897 405.539 488.823 404.8 488.691C405.527 488.42 406.309 488.324 407.08 488.413C408.945 488.495 410.765 489.011 412.396 489.92C414.027 490.828 415.425 492.104 416.478 493.647C416.962 494.252 417.295 494.963 417.451 495.722Z" fill="#133578"/>
<path d="M439.834 475.118C438.742 476.138 437.57 477.069 436.331 477.902C434.134 479.559 431.076 481.8 427.892 484.515C425.161 486.821 422.635 489.359 420.343 492.102C418.605 494.218 417.687 495.638 417.562 495.582C417.684 495.194 417.867 494.828 418.104 494.497C418.66 493.555 419.273 492.649 419.939 491.782C422.136 488.914 424.64 486.295 427.405 483.972C430.156 481.651 433.034 479.485 436.025 477.485C437.225 476.588 438.499 475.796 439.834 475.118Z" fill="#133578"/>
<path d="M501.55 531.388L522.126 492.172L559.261 509.156L535.042 551.964L501.55 531.388Z" fill="#0075FF"/>
<path d="M476.984 497.267C476.75 498.181 476.39 499.057 475.913 499.871C474.891 501.903 473.744 503.869 472.479 505.759C471.205 507.647 469.812 509.451 468.308 511.161C467.74 511.918 467.06 512.585 466.292 513.138C466.125 512.998 468.92 509.741 471.853 505.356C474.787 500.971 476.775 497.17 476.984 497.267Z" fill="white"/>
<path d="M463.345 497.809C462.725 500.637 461.67 503.352 460.217 505.856C458.948 508.456 457.288 510.846 455.295 512.941C455.114 512.802 457.353 509.67 459.577 505.508C461.802 501.345 463.136 497.739 463.345 497.809Z" fill="white"/>
<path d="M448.107 495.123C447.42 497.225 446.486 499.239 445.327 501.123C444.369 503.134 443 504.922 441.309 506.371C441.17 506.232 442.977 503.949 444.701 500.802C446.425 497.656 447.899 495.011 448.107 495.123Z" fill="white"/>
<path d="M499.687 474.784C499.687 474.979 492.082 473.114 482.809 470.608C473.536 468.102 466.125 465.902 466.125 465.721C466.125 465.54 473.73 467.392 483.004 469.898C492.277 472.404 499.743 474.589 499.687 474.784Z" fill="white"/>
<path d="M496.517 468.241C495.595 468.167 494.69 467.951 493.834 467.6C491.716 466.93 489.645 466.121 487.633 465.178C485.617 464.245 483.662 463.184 481.78 462.004C480.965 461.57 480.22 461.016 479.569 460.361C479.681 460.18 483.268 462.366 487.911 464.537C492.555 466.709 496.573 467.962 496.517 468.241Z" fill="white"/>
<g opacity="0.3">
<path opacity="0.3" d="M508.96 473.113C508.641 472.5 508.432 471.874 508.126 471.248C504.843 464.57 500.174 458.67 494.432 453.943C493.903 453.512 493.194 453.066 492.597 453.401C492.375 453.547 492.209 453.764 492.126 454.017C492.043 454.269 492.047 454.543 492.138 454.793C492.308 455.286 492.588 455.734 492.958 456.101C498.144 462.199 502.315 468.032 507.501 474.129C507.89 474.644 509.308 473.809 508.96 473.113Z" fill="#133578"/>
</g>
<path d="M385.947 525.541C386.622 524.434 387.394 523.39 388.255 522.422C389.743 520.557 391.842 518.009 394.206 515.225C396.569 512.441 398.724 509.949 400.309 508.167C401.115 507.153 402.018 506.22 403.006 505.383C402.338 506.493 401.565 507.537 400.698 508.501C399.211 510.366 397.111 512.914 394.762 515.698C392.412 518.482 390.243 520.974 388.644 522.742C387.831 523.754 386.928 524.691 385.947 525.541Z" fill="#133578"/>
<path d="M391.619 545.365C391.439 545.365 394.497 537.012 398.446 526.794C402.394 516.576 405.745 508.404 405.926 508.487C406.106 508.571 403.062 516.84 399.113 527.058C395.165 537.277 391.814 545.448 391.619 545.365Z" fill="#133578"/>
<path d="M409.415 534.395C409.09 530.031 409.006 525.653 409.165 521.281C409.09 516.904 409.253 512.526 409.652 508.167C409.978 512.53 410.061 516.908 409.902 521.281C409.977 525.658 409.815 530.035 409.415 534.395Z" fill="#133578"/>
<path d="M364.759 173.737C364.759 166.651 367.011 164.257 365.357 162.934C359.434 158.187 354.151 145.714 353.664 140.173C352.538 127.143 363.536 115.685 363.536 115.685C365.579 108.725 368.402 99.495 376.66 93.0913C385.613 86.1306 399.641 77.8614 410.861 79.3092C422.081 80.7571 430.186 81.4531 437.36 90.2096L421.691 229.311C412.988 229.046 405.244 223.547 399.336 217.13C393.427 210.712 388.755 203.208 382.652 197.041C378.064 192.433 377.091 194.327 369.194 183.872C364.272 177.37 364.689 180.238 364.759 173.737Z" fill="#211F54"/>
<path d="M475.844 131.263C466.028 103.087 441.462 85.3231 413.614 95.931L411.098 97.0726C398.882 102.564 389.179 112.46 383.921 124.791C378.663 137.122 378.235 150.983 382.722 163.616C391.356 187.978 401.213 214.763 407.024 227.306C419.05 253.269 446.954 245.612 446.954 245.612L458.799 268.165C471.108 270.608 483.884 268.526 494.783 262.299C505.682 256.073 513.974 246.12 518.137 234.266L475.844 131.263Z" fill="#FFBE9D"/>
<path d="M446.378 180.282C446.842 181.221 447.653 181.941 448.64 182.29C449.626 182.64 450.709 182.59 451.659 182.153C452.133 181.958 452.563 181.67 452.924 181.306C453.285 180.942 453.57 180.509 453.762 180.034C453.954 179.558 454.049 179.049 454.041 178.536C454.033 178.023 453.923 177.516 453.717 177.046C453.255 176.106 452.444 175.384 451.457 175.034C450.47 174.685 449.386 174.735 448.436 175.176C447.962 175.371 447.532 175.659 447.171 176.023C446.81 176.387 446.525 176.819 446.333 177.295C446.141 177.771 446.047 178.28 446.054 178.793C446.062 179.306 446.172 179.812 446.378 180.282Z" fill="#211F54"/>
<path d="M409.121 196.892C409.586 197.832 410.399 198.554 411.388 198.902C412.376 199.251 413.461 199.199 414.412 198.759C414.885 198.562 415.314 198.273 415.674 197.909C416.035 197.545 416.319 197.113 416.511 196.637C416.702 196.162 416.797 195.653 416.79 195.141C416.783 194.628 416.675 194.122 416.47 193.652C416.008 192.711 415.197 191.989 414.21 191.64C413.223 191.29 412.139 191.341 411.189 191.781C410.713 191.975 410.282 192.263 409.919 192.626C409.557 192.99 409.271 193.423 409.078 193.9C408.885 194.376 408.789 194.886 408.797 195.4C408.804 195.914 408.914 196.421 409.121 196.892Z" fill="#211F54"/>
<path d="M396.818 188.236C397.495 188.479 399.194 185.094 403.024 183.157C406.854 181.219 410.679 181.718 410.858 181.032C410.961 180.72 410.106 180.157 408.4 179.828C406.145 179.516 403.85 179.91 401.827 180.954C399.824 181.968 398.192 183.589 397.164 185.587C396.499 187.083 396.496 188.137 396.818 188.236Z" fill="#211F54"/>
<path d="M437.004 170.817C437.708 170.987 439.062 167.478 442.678 165.115C446.295 162.752 450.151 162.885 450.261 162.182C450.325 161.863 449.398 161.356 447.678 161.239C445.393 161.164 443.141 161.799 441.232 163.059C439.334 164.265 437.873 166.05 437.063 168.151C436.534 169.706 436.67 170.747 437.004 170.817Z" fill="#211F54"/>
<path d="M436.004 205.684C435.905 205.461 433.308 206.256 429.173 207.724C428.141 208.124 427.064 208.422 426.602 207.817C426.14 207.212 425.88 205.947 425.779 204.552C425.501 201.697 425.218 198.748 424.895 195.575C423.535 182.863 422.008 172.575 421.501 172.631C420.994 172.688 421.677 183.062 423.046 195.794C423.395 198.919 423.742 201.9 424.069 204.757C424.262 206.063 424.27 207.658 425.516 208.882C425.836 209.155 426.214 209.352 426.621 209.458C427.029 209.563 427.455 209.575 427.867 209.493C428.487 209.371 429.087 209.165 429.65 208.879C433.674 207.134 436.102 205.906 436.004 205.684Z" fill="#211F54"/>
<path d="M448.697 202.603C448.061 202.887 450.164 207.071 448.085 211.86C446.007 216.648 441.338 218.439 441.607 219.045C441.729 219.318 443.013 219.351 444.962 218.434C447.431 217.224 449.396 215.182 450.511 212.667C451.578 210.249 451.662 207.51 450.744 205.032C449.965 203.224 448.972 202.432 448.697 202.603Z" fill="#211F54"/>
<path d="M426.388 157.109C427.382 157.877 430.702 155.065 435.297 152.835C439.891 150.605 444.092 149.556 444.093 148.308C444.07 147.713 442.873 147.169 440.864 147.108C438.255 147.13 435.685 147.746 433.349 148.909C431.013 150.072 428.972 151.752 427.38 153.822C426.219 155.453 425.934 156.743 426.388 157.109Z" fill="#211F54"/>
<path d="M389.827 170.987C390.945 171.518 393.148 169.265 396.313 167.6C399.478 165.934 402.502 165.203 402.666 163.968C402.707 163.381 401.847 162.723 400.245 162.493C398.152 162.269 396.043 162.706 394.211 163.742C392.354 164.732 390.846 166.27 389.894 168.148C389.248 169.659 389.333 170.747 389.827 170.987Z" fill="#211F54"/>
<path d="M437.36 90.2098C436.47 89.8618 435.553 89.5138 434.58 89.1936C426.822 86.4094 418.105 84.878 411.431 89.3746C407.594 91.95 405.147 96.1821 401.463 98.9942C396.486 102.795 389.868 103.602 384.39 106.637C381.113 108.488 378.325 111.096 376.257 114.244C374.19 117.392 372.903 120.988 372.503 124.735C371.933 130.554 373.476 136.846 370.751 141.997C369.486 144.391 365.19 146.062 363.703 148.303C363.703 148.303 361.047 167.236 375.548 166.401L377.369 164.856L391.592 146.02C396.333 144.419 401.213 143.236 403.284 138.879C404.674 135.997 404.285 132.517 404.48 129.287L412.085 120.238C414.49 119.639 417.145 119.417 419.537 118.846C422.369 118.204 425.042 116.997 427.397 115.297C429.753 113.597 431.741 111.438 433.244 108.951C434.747 106.463 435.734 103.698 436.145 100.82C436.556 97.9417 436.383 95.0102 435.636 92.2006L437.36 90.2098Z" fill="#211F54"/>
<path d="M413.531 111.927C416.728 109.31 423.179 103.755 423.777 99.746C425.084 91.0452 430.562 83.1379 438.403 80.2562C442.497 78.871 446.928 78.8493 451.035 80.1942C455.142 81.5391 458.705 84.1785 461.19 87.718C470.477 83.8201 482.044 85.7691 490.191 92.6183C494.297 96.1603 497.48 100.65 499.464 105.701C501.448 110.751 502.173 116.208 501.578 121.602C501.23 124.387 500.535 127.282 501.578 129.955C502.968 133.213 506.402 134.744 509.238 136.707C516.982 142.039 520.931 152.229 520.764 161.765C520.597 171.301 519.29 175.13 514.911 178.888C506.319 186.267 524.81 203.501 508.307 210.587L478.36 152.285L478.29 152.396C477.697 153.504 476.802 154.42 475.71 155.039C474.617 155.657 473.371 155.953 472.117 155.89C455.434 154.818 456.504 137.292 459.827 133.992C454.847 132.566 450.068 130.513 445.605 127.881C441.197 125.097 433.718 119.612 432.188 114.461C428.796 116.034 412.126 113.069 413.531 111.927Z" fill="#211F54"/>
<path d="M478.402 152.131C478.763 151.742 493.945 138.781 501.383 156.893C508.821 175.004 489.121 178.735 488.871 178.234C488.62 177.733 478.402 152.131 478.402 152.131Z" fill="#FFBE9D"/>
<path d="M491.581 169.101C491.581 169.004 491.984 169.185 492.624 169.213C493.505 169.223 494.356 168.894 495.001 168.294C496.614 166.804 496.976 163.101 495.724 159.802C495.127 158.216 494.176 156.788 492.944 155.626C492.536 155.14 492.017 154.76 491.431 154.518C490.846 154.276 490.21 154.178 489.579 154.233C489.176 154.285 488.804 154.476 488.527 154.773C488.251 155.071 488.087 155.456 488.064 155.862C488.064 156.461 488.3 156.781 488.217 156.851C488.133 156.92 487.702 156.711 487.536 155.904C487.467 155.425 487.555 154.937 487.786 154.512C488.131 153.93 488.69 153.505 489.343 153.328C490.139 153.162 490.965 153.203 491.741 153.447C492.518 153.691 493.219 154.129 493.778 154.721C495.194 155.969 496.282 157.547 496.948 159.315C498.338 163.018 497.865 167.194 495.558 169.06C495.13 169.398 494.632 169.638 494.101 169.76C493.57 169.883 493.018 169.886 492.485 169.77C491.79 169.519 491.526 169.157 491.581 169.101Z" fill="#EB996E"/>
<path d="M446.953 245.612C446.953 245.612 469.323 231.691 478.707 214.985C478.707 214.985 481.641 240.364 451.416 254.062L446.953 245.612Z" fill="#EB996E"/>
<path d="M489.621 329.669L497.254 331.298L489.607 333.539C489.132 333.682 488.703 333.95 488.366 334.314C488.028 334.679 487.794 335.128 487.689 335.614L485.784 344.774L483.726 335.781C483.606 335.279 483.348 334.82 482.982 334.456C482.617 334.092 482.157 333.838 481.655 333.72L474.008 331.98L481.877 329.767C482.347 329.609 482.766 329.328 483.091 328.954C483.416 328.579 483.636 328.124 483.726 327.637L485.478 318.811L487.466 327.581C487.589 328.099 487.857 328.571 488.239 328.941C488.62 329.311 489.1 329.564 489.621 329.669Z" fill="white"/>
<path d="M472.257 352.764L475.663 353.488L472.257 354.476C472.043 354.541 471.85 354.661 471.699 354.825C471.547 354.989 471.442 355.191 471.395 355.409L470.547 359.488L469.601 355.479C469.551 355.254 469.438 355.048 469.276 354.886C469.113 354.723 468.908 354.61 468.684 354.56L465.277 353.794L468.781 352.806C468.998 352.741 469.194 352.619 469.348 352.453C469.502 352.286 469.609 352.081 469.657 351.859L470.435 347.933L471.311 351.831C471.362 352.061 471.479 352.272 471.647 352.437C471.814 352.603 472.026 352.716 472.257 352.764Z" fill="white"/>
<path d="M574.345 240.656L577.752 241.38L574.345 242.369C574.132 242.433 573.939 242.553 573.788 242.717C573.636 242.881 573.531 243.083 573.483 243.301L572.635 247.38L571.69 243.371C571.64 243.146 571.527 242.941 571.365 242.778C571.202 242.615 570.997 242.502 570.772 242.452L567.366 241.687L570.87 240.698C571.088 240.636 571.286 240.515 571.44 240.348C571.595 240.181 571.701 239.975 571.746 239.751L572.524 235.826L573.4 239.724C573.451 239.954 573.568 240.164 573.735 240.33C573.903 240.495 574.115 240.608 574.345 240.656Z" fill="white"/>
<path d="M551.086 550.529H172.036V570.158H551.086V550.529Z" fill="#4A4566"/>
<path d="M551.123 550.529H441.461V570.158H551.123V550.529Z" fill="#6E7191"/>
<path d="M196.505 570.173C196.338 569.895 196.19 569.606 196.06 569.309C195.782 568.753 195.379 567.917 194.851 566.957C192.125 561.821 188.515 557.207 184.187 553.328C183.353 552.576 182.672 551.936 182.199 551.588C181.934 551.398 181.691 551.178 181.476 550.933C181.752 551.107 182.017 551.297 182.269 551.504C182.769 551.866 183.478 552.437 184.312 553.175C188.745 556.99 192.387 561.639 195.031 566.859C195.532 567.862 195.921 568.683 196.158 569.268C196.294 569.561 196.41 569.863 196.505 570.173Z" fill="#8883A5"/>
<path d="M225.215 570.521C223.346 570.537 221.481 570.345 219.654 569.95C217.725 569.538 215.836 568.956 214.009 568.21C211.746 567.259 209.58 566.089 207.545 564.715C203.864 562.185 200.655 559.028 198.063 555.388C197.002 553.888 196.072 552.3 195.282 550.641C195.282 550.641 195.366 550.752 195.491 550.961C195.616 551.17 195.852 551.56 196.061 551.908C196.74 553.063 197.478 554.183 198.271 555.263C200.894 558.841 204.099 561.952 207.753 564.465C209.768 565.832 211.91 567.002 214.148 567.959C215.983 568.721 217.881 569.317 219.821 569.741C220.564 569.919 221.316 570.058 222.073 570.159C222.643 570.265 223.219 570.335 223.797 570.367L224.882 570.465L225.215 570.521Z" fill="#8883A5"/>
<path d="M251.728 560.525C251.728 560.525 250.018 560.72 246.904 560.748C245.347 560.748 243.442 560.748 241.231 560.567C240.133 560.484 238.951 560.372 237.7 560.219L235.781 559.955C235.099 559.885 234.43 559.721 233.793 559.467C233.449 559.354 233.131 559.173 232.858 558.934C232.586 558.694 232.365 558.402 232.208 558.075C232.079 557.698 232.071 557.289 232.186 556.907C232.301 556.525 232.532 556.189 232.848 555.945C233.488 555.478 234.224 555.159 235.003 555.012C235.767 554.804 236.546 554.595 237.352 554.428C244.539 552.785 251.977 552.562 259.249 553.774C261.274 554.088 263.272 554.553 265.228 555.166C266.261 555.494 267.143 556.18 267.716 557.101C267.964 557.591 268.106 558.129 268.132 558.678C268.159 559.228 268.069 559.776 267.869 560.289C267.518 561.329 266.834 562.224 265.923 562.836C265.033 563.415 264.043 563.821 263.003 564.033C260.973 564.479 258.971 564.827 256.997 565.161C253.191 565.811 249.345 566.192 245.486 566.303C238.931 566.591 232.4 565.327 226.425 562.614C222.408 560.76 218.823 558.085 215.9 554.762C215.108 553.886 214.379 552.956 213.717 551.978C213.259 551.282 213.036 550.92 213.036 550.92C213.036 550.92 213.3 551.268 213.759 551.936C214.439 552.911 215.182 553.842 215.984 554.72C218.939 557.954 222.526 560.546 226.522 562.335C232.479 565.007 238.979 566.242 245.499 565.941C249.34 565.818 253.168 565.432 256.955 564.785C258.93 564.451 260.946 564.089 262.948 563.658C263.937 563.444 264.879 563.053 265.728 562.502C266.583 561.918 267.226 561.073 267.563 560.094C267.746 559.619 267.826 559.11 267.8 558.602C267.774 558.093 267.641 557.596 267.41 557.142C266.878 556.274 266.048 555.631 265.075 555.333C263.136 554.727 261.157 554.262 259.152 553.941C251.918 552.745 244.522 552.953 237.366 554.553C236.56 554.72 235.781 554.929 235.031 555.124C234.277 555.258 233.564 555.563 232.945 556.015C232.668 556.231 232.464 556.527 232.359 556.863C232.255 557.199 232.256 557.559 232.361 557.894C232.623 558.523 233.123 559.024 233.751 559.286C234.376 559.532 235.031 559.691 235.698 559.76L237.617 560.038C238.854 560.191 240.036 560.317 241.134 560.4C243.331 560.581 245.305 560.637 246.792 560.637C248.28 560.637 249.573 560.637 250.365 560.567L251.728 560.525Z" fill="#8883A5"/>
<path d="M318.837 551.866H318.309C317.961 551.866 317.461 551.754 316.807 551.768C314.967 551.718 313.128 551.924 311.343 552.381C308.696 553.071 306.143 554.081 303.739 555.388C300.796 557 297.947 558.775 295.202 560.706C292.255 562.724 289.419 564.617 286.707 566.135C284.32 567.515 281.782 568.618 279.144 569.42C277.367 569.962 275.524 570.257 273.667 570.297C272.989 570.321 272.311 570.298 271.637 570.228H272.165C272.665 570.253 273.166 570.253 273.667 570.228C275.508 570.144 277.33 569.821 279.089 569.267C281.695 568.44 284.204 567.329 286.568 565.954C289.266 564.423 292.13 562.529 295.035 560.511C297.788 558.572 300.653 556.796 303.613 555.193C306.036 553.884 308.615 552.888 311.288 552.228C313.107 551.787 314.98 551.609 316.849 551.699C317.515 551.711 318.179 551.766 318.837 551.866Z" fill="#8883A5"/>
<path d="M344.697 560.553L343.654 560.33C342.655 560.123 341.642 559.997 340.623 559.954C339.014 559.868 337.401 559.999 335.827 560.344C334.841 560.553 333.874 560.842 332.935 561.207C331.862 561.514 330.92 562.164 330.251 563.059C329.956 563.588 329.841 564.199 329.923 564.799C330.006 565.4 330.282 565.957 330.71 566.386C331.623 567.366 332.772 568.094 334.047 568.502C336.872 569.415 339.903 569.478 342.764 568.683C344.323 568.31 345.849 567.807 347.324 567.179C348.893 566.609 350.358 565.786 351.662 564.743C352.323 564.205 352.86 563.528 353.234 562.762C353.609 561.995 353.812 561.156 353.831 560.302C353.772 558.528 353.07 556.835 351.857 555.541C350.66 554.218 349.12 553.254 347.408 552.757C345.745 552.29 344.011 552.129 342.291 552.284C339.03 552.657 335.832 553.462 332.782 554.678C327.545 556.571 322.476 558.899 317.628 561.639C314.361 563.486 311.196 565.508 308.146 567.694C307.061 568.474 306.241 569.087 305.685 569.504C305.129 569.922 304.809 570.145 304.809 570.145C304.809 570.145 305.935 569.184 308.076 567.597C311.113 565.378 314.269 563.329 317.53 561.458C322.37 558.682 327.441 556.33 332.684 554.428C335.756 553.199 338.978 552.385 342.264 552.005C344.02 551.852 345.79 552.012 347.491 552.479C349.243 552.976 350.828 553.938 352.079 555.263C353.341 556.61 354.068 558.372 354.123 560.219C354.102 561.113 353.888 561.992 353.494 562.795C353.1 563.598 352.537 564.305 351.843 564.868C350.517 565.931 349.029 566.772 347.435 567.36C345.943 567.98 344.404 568.483 342.834 568.864C339.919 569.657 336.837 569.584 333.964 568.655C332.655 568.226 331.478 567.469 330.543 566.455C330.107 565.955 329.819 565.343 329.709 564.687C329.612 564.054 329.745 563.407 330.085 562.864C330.777 561.937 331.754 561.262 332.865 560.943C333.815 560.586 334.791 560.302 335.785 560.093C337.372 559.774 338.993 559.657 340.609 559.745C341.635 559.804 342.654 559.953 343.654 560.191C344.405 560.441 344.697 560.553 344.697 560.553Z" fill="#8883A5"/>
<path d="M375.825 570.047C375.825 570.047 375.825 569.685 375.825 569.031C375.883 568.104 375.883 567.174 375.825 566.247C375.626 563.193 374.706 560.231 373.142 557.602C371.551 554.988 369.244 552.887 366.497 551.546C365.347 551.021 364.144 550.62 362.91 550.349C364.183 550.462 365.426 550.802 366.58 551.351C369.401 552.667 371.771 554.788 373.392 557.448C374.984 560.113 375.891 563.131 376.034 566.233C376.132 567.508 376.061 568.79 375.825 570.047Z" fill="#8883A5"/>
<path d="M416.339 569.866C414.367 569.597 412.416 569.192 410.5 568.655C408.411 568.092 406.354 567.414 404.341 566.623C401.889 565.623 399.498 564.479 397.181 563.198C392.991 560.824 389.083 557.985 385.53 554.734C384.14 553.481 383.111 552.423 382.416 551.657L381.609 550.78C381.429 550.585 381.345 550.474 381.345 550.474C381.345 550.474 381.456 550.557 381.651 550.752L382.499 551.588C383.208 552.325 384.293 553.356 385.655 554.581C391.203 559.577 397.572 563.575 404.48 566.4C406.476 567.202 408.514 567.899 410.583 568.488C412.349 568.989 413.809 569.337 414.754 569.546L415.922 569.783C416.064 569.793 416.204 569.821 416.339 569.866Z" fill="#8883A5"/>
<path d="M444.798 564.381L444.409 564.2C444.159 564.075 443.825 563.852 443.339 563.629C441.995 562.973 440.6 562.428 439.168 562.001C437.047 561.37 434.881 560.904 432.689 560.609C430.228 560.247 427.489 560.01 424.625 559.634C418.897 558.924 413.781 557.212 410.722 554.943C409.489 554.089 408.368 553.083 407.386 551.95C406.718 551.128 406.398 550.641 406.398 550.641C406.398 550.641 406.51 550.738 406.69 550.947C406.871 551.156 407.107 551.49 407.469 551.88C408.478 552.974 409.612 553.946 410.847 554.776C413.92 556.975 418.981 558.632 424.75 559.342C427.6 559.718 430.311 559.968 432.814 560.344C435.012 560.631 437.184 561.096 439.307 561.736C440.748 562.18 442.144 562.758 443.478 563.462C444.27 564.047 444.798 564.381 444.798 564.381Z" fill="#8883A5"/>
</g>
</g>
<rect width="1012" height="570" rx="53" fill="white" fill-opacity="0.5"/>
<g clip-path="url(#clip2_1_320)" filter="url(#filter0_d_1_320)">
<path d="M506 384C560.676 384 605 339.676 605 285C605 230.324 560.676 186 506 186C451.324 186 407 230.324 407 285C407 339.676 451.324 384 506 384Z" fill="white"/>
<g filter="url(#filter1_i_1_320)">
<path d="M493.484 260.647C488.264 257.576 481.683 261.34 481.683 267.396V304.215C481.683 310.271 488.263 314.035 493.484 310.965L524.778 292.557C529.926 289.53 529.926 282.086 524.779 279.058L493.484 260.647Z" fill="#FF0000" fill-opacity="0.01"/>
</g>
<path d="M490.165 254.714C484.944 251.643 478.363 255.406 478.363 261.463V308.538C478.363 314.595 484.944 318.359 490.164 315.288L530.176 291.753C535.324 288.725 535.324 281.282 530.177 278.254L490.165 254.714Z" fill="#0075FF"/>
</g>
</g>
<defs>
<filter id="filter0_d_1_320" x="342" y="145" width="328" height="328" filterUnits="userSpaceOnUse" color-interpolation-filters="sRGB">
<feFlood flood-opacity="0" result="BackgroundImageFix"/>
<feColorMatrix in="SourceAlpha" type="matrix" values="0 0 0 0 0 0 0 0 0 0 0 0 0 0 0 0 0 0 127 0" result="hardAlpha"/>
<feOffset dy="24"/>
<feGaussianBlur stdDeviation="32.5"/>
<feColorMatrix type="matrix" values="0 0 0 0 0.0784314 0 0 0 0 0.0784314 0 0 0 0 0.168627 0 0 0 0.16 0"/>
<feBlend mode="normal" in2="BackgroundImageFix" result="effect1_dropShadow_1_320"/>
<feBlend mode="normal" in="SourceGraphic" in2="effect1_dropShadow_1_320" result="shape"/>
</filter>
<filter id="filter1_i_1_320" x="481.683" y="259.554" width="46.9564" height="62.5039" filterUnits="userSpaceOnUse" color-interpolation-filters="sRGB">
<feFlood flood-opacity="0" result="BackgroundImageFix"/>
<feBlend mode="normal" in="SourceGraphic" in2="BackgroundImageFix" result="shape"/>
<feColorMatrix in="SourceAlpha" type="matrix" values="0 0 0 0 0 0 0 0 0 0 0 0 0 0 0 0 0 0 127 0" result="hardAlpha"/>
<feOffset dy="10"/>
<feGaussianBlur stdDeviation="14"/>
<feComposite in2="hardAlpha" operator="arithmetic" k2="-1" k3="1"/>
<feColorMatrix type="matrix" values="0 0 0 0 0 0 0 0 0 0.46 0 0 0 0 1 0 0 0 0.26 0"/>
<feBlend mode="normal" in2="shape" result="effect1_innerShadow_1_320"/>
</filter>
<clipPath id="clip0_1_320">
<rect width="1012" height="570" fill="white"/>
</clipPath>
<clipPath id="clip1_1_320">
<rect width="1012" height="570" rx="53" fill="white"/>
</clipPath>
<clipPath id="clip2_1_320">
<rect width="198" height="198" fill="white" transform="translate(407 186)"/>
</clipPath>
</defs>
</svg>
